<mxfile host="app.diagrams.net" agent="Mozilla/5.0 (Windows NT 10.0; Win64; x64) AppleWebKit/537.36 (KHTML, like Gecko) Chrome/131.0.0.0 Safari/537.36" version="26.0.5">
  <diagram name="Page-1" id="lwdycyRZO6_phU7uWME0">
    <mxGraphModel dx="4613" dy="5374" grid="1" gridSize="10" guides="1" tooltips="1" connect="1" arrows="1" fold="1" page="1" pageScale="1" pageWidth="3300" pageHeight="2339" math="0" shadow="0">
      <root>
        <mxCell id="0" />
        <mxCell id="1" parent="0" />
        <mxCell id="MoZW9BYMlRde97nalndC-1" value="" style="edgeStyle=elbowEdgeStyle;elbow=vertical;endArrow=block;html=1;curved=0;rounded=0;endSize=8;startSize=8;endFill=0;targetPerimeterSpacing=2;sourcePerimeterSpacing=2;entryX=0.5;entryY=1;entryDx=0;entryDy=0;fontSize=27;strokeWidth=3;fontStyle=1" edge="1" parent="1" target="MoZW9BYMlRde97nalndC-234">
          <mxGeometry width="50" height="50" relative="1" as="geometry">
            <mxPoint x="-240" y="620" as="sourcePoint" />
            <mxPoint x="230.82999999999902" y="173.52999999999975" as="targetPoint" />
            <Array as="points">
              <mxPoint x="10" y="520" />
            </Array>
          </mxGeometry>
        </mxCell>
        <mxCell id="MoZW9BYMlRde97nalndC-2" value="" style="line;strokeWidth=2;direction=south;html=1;perimeter=backbonePerimeter;points=[];outlineConnect=0;fontSize=27;fontStyle=1" vertex="1" parent="1">
          <mxGeometry x="110" y="520" width="10" height="630" as="geometry" />
        </mxCell>
        <mxCell id="MoZW9BYMlRde97nalndC-3" value="" style="line;strokeWidth=1;direction=south;html=1;perimeter=backbonePerimeter;points=[];outlineConnect=0;fontSize=27;fontStyle=1" vertex="1" parent="1">
          <mxGeometry x="410" y="519" width="10" height="60" as="geometry" />
        </mxCell>
        <mxCell id="MoZW9BYMlRde97nalndC-4" value="" style="line;strokeWidth=3;html=1;perimeter=backbonePerimeter;points=[];outlineConnect=0;fontSize=27;fontStyle=1" vertex="1" parent="1">
          <mxGeometry x="230" y="519" width="1430" height="3" as="geometry" />
        </mxCell>
        <mxCell id="MoZW9BYMlRde97nalndC-5" value="Reviewer" style="swimlane;fontStyle=1;align=center;verticalAlign=top;childLayout=stackLayout;horizontal=1;startSize=26;horizontalStack=0;resizeParent=1;resizeParentMax=0;resizeLast=0;collapsible=1;marginBottom=0;whiteSpace=wrap;html=1;fontSize=27;" vertex="1" parent="1">
          <mxGeometry x="-20" y="1160" width="400" height="90" as="geometry" />
        </mxCell>
        <mxCell id="MoZW9BYMlRde97nalndC-6" value="" style="line;strokeWidth=1;fillColor=none;align=left;verticalAlign=middle;spacingTop=-1;spacingLeft=3;spacingRight=3;rotatable=0;labelPosition=right;points=[];portConstraint=eastwest;strokeColor=inherit;fontSize=27;fontStyle=1" vertex="1" parent="MoZW9BYMlRde97nalndC-5">
          <mxGeometry y="26" width="400" height="64" as="geometry" />
        </mxCell>
        <mxCell id="MoZW9BYMlRde97nalndC-9" value="Public User" style="swimlane;fontStyle=1;align=center;verticalAlign=top;childLayout=stackLayout;horizontal=1;startSize=26;horizontalStack=0;resizeParent=1;resizeParentMax=0;resizeLast=0;collapsible=1;marginBottom=0;whiteSpace=wrap;html=1;fontSize=27;" vertex="1" parent="1">
          <mxGeometry x="720" y="609" width="380" height="150" as="geometry" />
        </mxCell>
        <mxCell id="MoZW9BYMlRde97nalndC-11" value="&lt;font style=&quot;color: rgb(255, 255, 255);&quot;&gt;.&lt;/font&gt;" style="text;strokeColor=none;fillColor=none;align=left;verticalAlign=top;spacingLeft=4;spacingRight=4;overflow=hidden;rotatable=0;points=[[0,0.5],[1,0.5]];portConstraint=eastwest;whiteSpace=wrap;html=1;fontSize=27;fontStyle=1" vertex="1" parent="MoZW9BYMlRde97nalndC-9">
          <mxGeometry y="26" width="380" height="76" as="geometry" />
        </mxCell>
        <mxCell id="MoZW9BYMlRde97nalndC-10" value="" style="line;strokeWidth=1;fillColor=none;align=left;verticalAlign=middle;spacingTop=-1;spacingLeft=3;spacingRight=3;rotatable=0;labelPosition=right;points=[];portConstraint=eastwest;strokeColor=inherit;fontSize=27;fontStyle=1" vertex="1" parent="MoZW9BYMlRde97nalndC-9">
          <mxGeometry y="102" width="380" height="8" as="geometry" />
        </mxCell>
        <mxCell id="MoZW9BYMlRde97nalndC-12" value="&lt;font style=&quot;color: rgb(255, 255, 255);&quot;&gt;.&lt;/font&gt;" style="text;strokeColor=none;fillColor=none;align=left;verticalAlign=top;spacingLeft=4;spacingRight=4;overflow=hidden;rotatable=0;points=[[0,0.5],[1,0.5]];portConstraint=eastwest;whiteSpace=wrap;html=1;fontSize=27;fontStyle=1" vertex="1" parent="MoZW9BYMlRde97nalndC-9">
          <mxGeometry y="110" width="380" height="40" as="geometry" />
        </mxCell>
        <mxCell id="MoZW9BYMlRde97nalndC-13" value="" style="line;strokeWidth=1;direction=south;html=1;perimeter=backbonePerimeter;points=[];outlineConnect=0;fontSize=27;fontStyle=1" vertex="1" parent="1">
          <mxGeometry x="810" y="519" width="210" height="90" as="geometry" />
        </mxCell>
        <mxCell id="MoZW9BYMlRde97nalndC-14" value="" style="line;strokeWidth=2;direction=south;html=1;perimeter=backbonePerimeter;points=[];outlineConnect=0;fontSize=27;fontStyle=1" vertex="1" parent="1">
          <mxGeometry x="670" y="522" width="10" height="678" as="geometry" />
        </mxCell>
        <mxCell id="MoZW9BYMlRde97nalndC-15" value="Uploader" style="swimlane;fontStyle=1;align=center;verticalAlign=top;childLayout=stackLayout;horizontal=1;startSize=26;horizontalStack=0;resizeParent=1;resizeParentMax=0;resizeLast=0;collapsible=1;marginBottom=0;whiteSpace=wrap;html=1;fontSize=27;" vertex="1" parent="1">
          <mxGeometry x="480" y="1200" width="330" height="100" as="geometry" />
        </mxCell>
        <mxCell id="MoZW9BYMlRde97nalndC-16" value="" style="line;strokeWidth=1;fillColor=none;align=left;verticalAlign=middle;spacingTop=-1;spacingLeft=3;spacingRight=3;rotatable=0;labelPosition=right;points=[];portConstraint=eastwest;strokeColor=inherit;fontSize=27;fontStyle=1" vertex="1" parent="MoZW9BYMlRde97nalndC-15">
          <mxGeometry y="26" width="330" height="74" as="geometry" />
        </mxCell>
        <mxCell id="MoZW9BYMlRde97nalndC-18" value="Platform Admin" style="swimlane;fontStyle=1;align=center;verticalAlign=top;childLayout=stackLayout;horizontal=1;startSize=26;horizontalStack=0;resizeParent=1;resizeParentMax=0;resizeLast=0;collapsible=1;marginBottom=0;whiteSpace=wrap;html=1;fontSize=27;" vertex="1" parent="1">
          <mxGeometry x="1470" y="700" width="550" height="140" as="geometry" />
        </mxCell>
        <mxCell id="MoZW9BYMlRde97nalndC-20" value="&lt;font style=&quot;color: rgb(255, 255, 255);&quot;&gt;.&lt;/font&gt;" style="text;strokeColor=none;fillColor=none;align=left;verticalAlign=top;spacingLeft=4;spacingRight=4;overflow=hidden;rotatable=0;points=[[0,0.5],[1,0.5]];portConstraint=eastwest;whiteSpace=wrap;html=1;fontSize=27;fontStyle=1" vertex="1" parent="MoZW9BYMlRde97nalndC-18">
          <mxGeometry y="26" width="550" height="66" as="geometry" />
        </mxCell>
        <mxCell id="MoZW9BYMlRde97nalndC-19" value="" style="line;strokeWidth=1;fillColor=none;align=left;verticalAlign=middle;spacingTop=-1;spacingLeft=3;spacingRight=3;rotatable=0;labelPosition=right;points=[];portConstraint=eastwest;strokeColor=inherit;fontSize=27;fontStyle=1" vertex="1" parent="MoZW9BYMlRde97nalndC-18">
          <mxGeometry y="92" width="550" height="8" as="geometry" />
        </mxCell>
        <mxCell id="MoZW9BYMlRde97nalndC-21" value="&lt;font style=&quot;color: rgb(255, 255, 255);&quot;&gt;.&lt;/font&gt;" style="text;strokeColor=none;fillColor=none;align=left;verticalAlign=top;spacingLeft=4;spacingRight=4;overflow=hidden;rotatable=0;points=[[0,0.5],[1,0.5]];portConstraint=eastwest;whiteSpace=wrap;html=1;fontSize=27;fontStyle=1" vertex="1" parent="MoZW9BYMlRde97nalndC-18">
          <mxGeometry y="100" width="550" height="40" as="geometry" />
        </mxCell>
        <mxCell id="MoZW9BYMlRde97nalndC-28" value="" style="line;strokeWidth=3;direction=south;html=1;perimeter=backbonePerimeter;points=[];outlineConnect=0;fontSize=27;fontStyle=1" vertex="1" parent="1">
          <mxGeometry x="1310" y="522" width="700" height="188" as="geometry" />
        </mxCell>
        <mxCell id="MoZW9BYMlRde97nalndC-29" value="" style="line;strokeWidth=3;direction=south;html=1;perimeter=backbonePerimeter;points=[];outlineConnect=0;fontSize=27;fontStyle=1" vertex="1" parent="1">
          <mxGeometry x="1120" y="520" width="10" height="530" as="geometry" />
        </mxCell>
        <mxCell id="MoZW9BYMlRde97nalndC-30" value="&lt;span style=&quot;text-align: left;&quot;&gt;Institution&lt;/span&gt;&amp;nbsp;Admin" style="swimlane;fontStyle=1;align=center;verticalAlign=top;childLayout=stackLayout;horizontal=1;startSize=26;horizontalStack=0;resizeParent=1;resizeParentMax=0;resizeLast=0;collapsible=1;marginBottom=0;whiteSpace=wrap;html=1;fontSize=27;" vertex="1" parent="1">
          <mxGeometry x="900" y="1046" width="490" height="154" as="geometry" />
        </mxCell>
        <mxCell id="MoZW9BYMlRde97nalndC-279" value="&lt;font style=&quot;color: rgb(255, 255, 255);&quot;&gt;.&lt;/font&gt;" style="text;strokeColor=none;fillColor=none;align=left;verticalAlign=top;spacingLeft=4;spacingRight=4;overflow=hidden;rotatable=0;points=[[0,0.5],[1,0.5]];portConstraint=eastwest;whiteSpace=wrap;html=1;fontSize=27;fontStyle=1" vertex="1" parent="MoZW9BYMlRde97nalndC-30">
          <mxGeometry y="26" width="490" height="40" as="geometry" />
        </mxCell>
        <mxCell id="MoZW9BYMlRde97nalndC-31" value="" style="line;strokeWidth=1;fillColor=none;align=left;verticalAlign=middle;spacingTop=-1;spacingLeft=3;spacingRight=3;rotatable=0;labelPosition=right;points=[];portConstraint=eastwest;strokeColor=inherit;fontSize=27;fontStyle=1" vertex="1" parent="MoZW9BYMlRde97nalndC-30">
          <mxGeometry y="66" width="490" height="8" as="geometry" />
        </mxCell>
        <mxCell id="MoZW9BYMlRde97nalndC-37" value="&lt;font style=&quot;color: rgb(255, 255, 255);&quot;&gt;.&lt;/font&gt;" style="text;strokeColor=none;fillColor=none;align=left;verticalAlign=top;spacingLeft=4;spacingRight=4;overflow=hidden;rotatable=0;points=[[0,0.5],[1,0.5]];portConstraint=eastwest;whiteSpace=wrap;html=1;fontSize=27;fontStyle=1" vertex="1" parent="MoZW9BYMlRde97nalndC-30">
          <mxGeometry y="74" width="490" height="80" as="geometry" />
        </mxCell>
        <mxCell id="MoZW9BYMlRde97nalndC-39" value="&lt;span style=&quot;text-align: left;&quot;&gt;Institution&lt;/span&gt;" style="swimlane;fontStyle=1;align=center;verticalAlign=top;childLayout=stackLayout;horizontal=1;startSize=26;horizontalStack=0;resizeParent=1;resizeParentMax=0;resizeLast=0;collapsible=1;marginBottom=0;whiteSpace=wrap;html=1;fontSize=27;" vertex="1" parent="1">
          <mxGeometry x="1780" y="1060" width="470" height="644" as="geometry" />
        </mxCell>
        <mxCell id="MoZW9BYMlRde97nalndC-40" value="- id: Int " style="text;strokeColor=none;fillColor=none;align=left;verticalAlign=top;spacingLeft=4;spacingRight=4;overflow=hidden;rotatable=0;points=[[0,0.5],[1,0.5]];portConstraint=eastwest;whiteSpace=wrap;html=1;fontSize=27;fontStyle=1" vertex="1" parent="MoZW9BYMlRde97nalndC-39">
          <mxGeometry y="26" width="470" height="44" as="geometry" />
        </mxCell>
        <mxCell id="MoZW9BYMlRde97nalndC-41" value="- name: String" style="text;whiteSpace=wrap;html=1;fontSize=27;fontStyle=1" vertex="1" parent="MoZW9BYMlRde97nalndC-39">
          <mxGeometry y="70" width="470" height="60" as="geometry" />
        </mxCell>
        <mxCell id="MoZW9BYMlRde97nalndC-42" value="- city:string" style="text;whiteSpace=wrap;html=1;fontSize=27;fontStyle=1" vertex="1" parent="MoZW9BYMlRde97nalndC-39">
          <mxGeometry y="130" width="470" height="40" as="geometry" />
        </mxCell>
        <mxCell id="MoZW9BYMlRde97nalndC-43" value="- country: String?" style="text;whiteSpace=wrap;html=1;fontSize=27;fontStyle=1" vertex="1" parent="MoZW9BYMlRde97nalndC-39">
          <mxGeometry y="170" width="470" height="40" as="geometry" />
        </mxCell>
        <mxCell id="MoZW9BYMlRde97nalndC-44" value="- collaborationPurpose: String?" style="text;whiteSpace=wrap;html=1;fontSize=27;fontStyle=1" vertex="1" parent="MoZW9BYMlRde97nalndC-39">
          <mxGeometry y="210" width="470" height="40" as="geometry" />
        </mxCell>
        <mxCell id="MoZW9BYMlRde97nalndC-45" value="- establishDate: DateTime" style="text;whiteSpace=wrap;html=1;fontSize=27;fontStyle=1" vertex="1" parent="MoZW9BYMlRde97nalndC-39">
          <mxGeometry y="250" width="470" height="40" as="geometry" />
        </mxCell>
        <mxCell id="MoZW9BYMlRde97nalndC-46" value="- phone: String" style="text;whiteSpace=wrap;html=1;fontSize=27;fontStyle=1" vertex="1" parent="MoZW9BYMlRde97nalndC-39">
          <mxGeometry y="290" width="470" height="40" as="geometry" />
        </mxCell>
        <mxCell id="MoZW9BYMlRde97nalndC-47" value="- photo: String?" style="text;whiteSpace=wrap;html=1;fontSize=27;fontStyle=1" vertex="1" parent="MoZW9BYMlRde97nalndC-39">
          <mxGeometry y="330" width="470" height="40" as="geometry" />
        </mxCell>
        <mxCell id="MoZW9BYMlRde97nalndC-48" value="- type: String" style="text;whiteSpace=wrap;html=1;fontSize=27;fontStyle=1" vertex="1" parent="MoZW9BYMlRde97nalndC-39">
          <mxGeometry y="370" width="470" height="40" as="geometry" />
        </mxCell>
        <mxCell id="MoZW9BYMlRde97nalndC-49" value="- description: String?" style="text;whiteSpace=wrap;html=1;fontSize=27;fontStyle=1" vertex="1" parent="MoZW9BYMlRde97nalndC-39">
          <mxGeometry y="410" width="470" height="40" as="geometry" />
        </mxCell>
        <mxCell id="MoZW9BYMlRde97nalndC-50" value="- collaborationPurpose: String?" style="text;whiteSpace=wrap;html=1;fontSize=27;fontStyle=1" vertex="1" parent="MoZW9BYMlRde97nalndC-39">
          <mxGeometry y="450" width="470" height="40" as="geometry" />
        </mxCell>
        <mxCell id="MoZW9BYMlRde97nalndC-51" value="- document: String?" style="text;whiteSpace=wrap;html=1;fontSize=27;fontStyle=1" vertex="1" parent="MoZW9BYMlRde97nalndC-39">
          <mxGeometry y="490" width="470" height="40" as="geometry" />
        </mxCell>
        <mxCell id="MoZW9BYMlRde97nalndC-52" value="- createdAt: DateTime" style="text;whiteSpace=wrap;html=1;fontSize=27;fontStyle=1" vertex="1" parent="MoZW9BYMlRde97nalndC-39">
          <mxGeometry y="530" width="470" height="40" as="geometry" />
        </mxCell>
        <mxCell id="MoZW9BYMlRde97nalndC-53" value="- createdAt: DateTime" style="text;whiteSpace=wrap;html=1;fontSize=27;fontStyle=1" vertex="1" parent="MoZW9BYMlRde97nalndC-39">
          <mxGeometry y="570" width="470" height="40" as="geometry" />
        </mxCell>
        <mxCell id="MoZW9BYMlRde97nalndC-54" value="" style="line;strokeWidth=1;fillColor=none;align=left;verticalAlign=middle;spacingTop=-1;spacingLeft=3;spacingRight=3;rotatable=0;labelPosition=right;points=[];portConstraint=eastwest;strokeColor=inherit;fontSize=27;fontStyle=1" vertex="1" parent="MoZW9BYMlRde97nalndC-39">
          <mxGeometry y="610" width="470" height="34" as="geometry" />
        </mxCell>
        <mxCell id="MoZW9BYMlRde97nalndC-55" value="&lt;div style=&quot;text-align: left;&quot;&gt;&lt;span style=&quot;background-color: transparent; color: light-dark(rgb(0, 0, 0), rgb(255, 255, 255));&quot;&gt;Subscription Plan&amp;nbsp;&lt;/span&gt;&lt;/div&gt;" style="swimlane;fontStyle=1;align=center;verticalAlign=top;childLayout=stackLayout;horizontal=1;startSize=26;horizontalStack=0;resizeParent=1;resizeParentMax=0;resizeLast=0;collapsible=1;marginBottom=0;whiteSpace=wrap;html=1;fontSize=27;" vertex="1" parent="1">
          <mxGeometry x="670" y="1670" width="314" height="394" as="geometry" />
        </mxCell>
        <mxCell id="MoZW9BYMlRde97nalndC-56" value="- id: Int" style="text;whiteSpace=wrap;html=1;fontSize=27;fontStyle=1" vertex="1" parent="MoZW9BYMlRde97nalndC-55">
          <mxGeometry y="26" width="314" height="40" as="geometry" />
        </mxCell>
        <mxCell id="MoZW9BYMlRde97nalndC-57" value="- name: PlanName" style="text;whiteSpace=wrap;html=1;fontSize=27;fontStyle=1" vertex="1" parent="MoZW9BYMlRde97nalndC-55">
          <mxGeometry y="66" width="314" height="40" as="geometry" />
        </mxCell>
        <mxCell id="MoZW9BYMlRde97nalndC-58" value="- features: String[]" style="text;whiteSpace=wrap;html=1;fontSize=27;fontStyle=1" vertex="1" parent="MoZW9BYMlRde97nalndC-55">
          <mxGeometry y="106" width="314" height="40" as="geometry" />
        </mxCell>
        <mxCell id="MoZW9BYMlRde97nalndC-59" value="- price: Float" style="text;whiteSpace=wrap;html=1;fontSize=27;fontStyle=1" vertex="1" parent="MoZW9BYMlRde97nalndC-55">
          <mxGeometry y="146" width="314" height="40" as="geometry" />
        </mxCell>
        <mxCell id="MoZW9BYMlRde97nalndC-60" value="- validity: String?" style="text;whiteSpace=wrap;html=1;fontSize=27;fontStyle=1" vertex="1" parent="MoZW9BYMlRde97nalndC-55">
          <mxGeometry y="186" width="314" height="40" as="geometry" />
        </mxCell>
        <mxCell id="MoZW9BYMlRde97nalndC-61" value="- createdAt: DateTime" style="text;whiteSpace=wrap;html=1;fontSize=27;fontStyle=1" vertex="1" parent="MoZW9BYMlRde97nalndC-55">
          <mxGeometry y="226" width="314" height="40" as="geometry" />
        </mxCell>
        <mxCell id="MoZW9BYMlRde97nalndC-62" value="- freeTrial: Boolean" style="text;whiteSpace=wrap;html=1;fontSize=27;fontStyle=1" vertex="1" parent="MoZW9BYMlRde97nalndC-55">
          <mxGeometry y="266" width="314" height="40" as="geometry" />
        </mxCell>
        <mxCell id="MoZW9BYMlRde97nalndC-63" value="- isActive: Boolean" style="text;whiteSpace=wrap;html=1;fontSize=27;fontStyle=1" vertex="1" parent="MoZW9BYMlRde97nalndC-55">
          <mxGeometry y="306" width="314" height="40" as="geometry" />
        </mxCell>
        <mxCell id="MoZW9BYMlRde97nalndC-64" value="- trialDuration: String?" style="text;whiteSpace=wrap;html=1;fontSize=27;fontStyle=1" vertex="1" parent="MoZW9BYMlRde97nalndC-55">
          <mxGeometry y="346" width="314" height="40" as="geometry" />
        </mxCell>
        <mxCell id="MoZW9BYMlRde97nalndC-65" value="" style="line;strokeWidth=1;fillColor=none;align=left;verticalAlign=middle;spacingTop=-1;spacingLeft=3;spacingRight=3;rotatable=0;labelPosition=right;points=[];portConstraint=eastwest;strokeColor=inherit;fontSize=27;fontStyle=1" vertex="1" parent="MoZW9BYMlRde97nalndC-55">
          <mxGeometry y="386" width="314" height="8" as="geometry" />
        </mxCell>
        <mxCell id="MoZW9BYMlRde97nalndC-66" value="Content" style="swimlane;fontStyle=1;align=center;verticalAlign=top;childLayout=stackLayout;horizontal=1;startSize=26;horizontalStack=0;resizeParent=1;resizeParentMax=0;resizeLast=0;collapsible=1;marginBottom=0;whiteSpace=wrap;html=1;fontSize=27;" vertex="1" parent="1">
          <mxGeometry x="86" y="1850" width="374" height="678" as="geometry" />
        </mxCell>
        <mxCell id="MoZW9BYMlRde97nalndC-67" value="-id: Int" style="text;strokeColor=none;fillColor=none;align=left;verticalAlign=top;spacingLeft=4;spacingRight=4;overflow=hidden;rotatable=0;points=[[0,0.5],[1,0.5]];portConstraint=eastwest;whiteSpace=wrap;html=1;fontSize=27;fontStyle=1" vertex="1" parent="MoZW9BYMlRde97nalndC-66">
          <mxGeometry y="26" width="374" height="44" as="geometry" />
        </mxCell>
        <mxCell id="MoZW9BYMlRde97nalndC-68" value="-title: String" style="text;strokeColor=none;fillColor=none;align=left;verticalAlign=top;spacingLeft=4;spacingRight=4;overflow=hidden;rotatable=0;points=[[0,0.5],[1,0.5]];portConstraint=eastwest;whiteSpace=wrap;html=1;fontSize=27;fontStyle=1" vertex="1" parent="MoZW9BYMlRde97nalndC-66">
          <mxGeometry y="70" width="374" height="50" as="geometry" />
        </mxCell>
        <mxCell id="MoZW9BYMlRde97nalndC-69" value="-coverImage: String?" style="text;strokeColor=none;fillColor=none;align=left;verticalAlign=top;spacingLeft=4;spacingRight=4;overflow=hidden;rotatable=0;points=[[0,0.5],[1,0.5]];portConstraint=eastwest;whiteSpace=wrap;html=1;fontSize=27;fontStyle=1" vertex="1" parent="MoZW9BYMlRde97nalndC-66">
          <mxGeometry y="120" width="374" height="40" as="geometry" />
        </mxCell>
        <mxCell id="MoZW9BYMlRde97nalndC-70" value="-description: String" style="text;strokeColor=none;fillColor=none;align=left;verticalAlign=top;spacingLeft=4;spacingRight=4;overflow=hidden;rotatable=0;points=[[0,0.5],[1,0.5]];portConstraint=eastwest;whiteSpace=wrap;html=1;fontSize=27;fontStyle=1" vertex="1" parent="MoZW9BYMlRde97nalndC-66">
          <mxGeometry y="160" width="374" height="40" as="geometry" />
        </mxCell>
        <mxCell id="MoZW9BYMlRde97nalndC-71" value="-fileUrl: String" style="text;whiteSpace=wrap;html=1;fontSize=27;fontStyle=1" vertex="1" parent="MoZW9BYMlRde97nalndC-66">
          <mxGeometry y="200" width="374" height="40" as="geometry" />
        </mxCell>
        <mxCell id="MoZW9BYMlRde97nalndC-72" value="-accessLevel: String" style="text;strokeColor=none;fillColor=none;align=left;verticalAlign=top;spacingLeft=4;spacingRight=4;overflow=hidden;rotatable=0;points=[[0,0.5],[1,0.5]];portConstraint=eastwest;whiteSpace=wrap;html=1;fontSize=27;fontStyle=1" vertex="1" parent="MoZW9BYMlRde97nalndC-66">
          <mxGeometry y="240" width="374" height="50" as="geometry" />
        </mxCell>
        <mxCell id="MoZW9BYMlRde97nalndC-73" value="-eventType: : String?" style="text;whiteSpace=wrap;html=1;fontSize=27;fontStyle=1" vertex="1" parent="MoZW9BYMlRde97nalndC-66">
          <mxGeometry y="290" width="374" height="50" as="geometry" />
        </mxCell>
        <mxCell id="MoZW9BYMlRde97nalndC-74" value="- createdAt: DateTime" style="text;strokeColor=none;fillColor=none;align=left;verticalAlign=top;spacingLeft=4;spacingRight=4;overflow=hidden;rotatable=0;points=[[0,0.5],[1,0.5]];portConstraint=eastwest;whiteSpace=wrap;html=1;fontSize=27;fontStyle=1" vertex="1" parent="MoZW9BYMlRde97nalndC-66">
          <mxGeometry y="340" width="374" height="50" as="geometry" />
        </mxCell>
        <mxCell id="MoZW9BYMlRde97nalndC-75" value="-&amp;nbsp;updatedAt: DateTime" style="text;strokeColor=none;fillColor=none;align=left;verticalAlign=top;spacingLeft=4;spacingRight=4;overflow=hidden;rotatable=0;points=[[0,0.5],[1,0.5]];portConstraint=eastwest;whiteSpace=wrap;html=1;fontSize=27;fontStyle=1" vertex="1" parent="MoZW9BYMlRde97nalndC-66">
          <mxGeometry y="390" width="374" height="54" as="geometry" />
        </mxCell>
        <mxCell id="MoZW9BYMlRde97nalndC-76" value="-&amp;nbsp;isActive: Boolean" style="text;whiteSpace=wrap;html=1;fontSize=27;fontStyle=1" vertex="1" parent="MoZW9BYMlRde97nalndC-66">
          <mxGeometry y="444" width="374" height="56" as="geometry" />
        </mxCell>
        <mxCell id="MoZW9BYMlRde97nalndC-77" value="&amp;nbsp;- numberOfViews: Int?" style="text;whiteSpace=wrap;html=1;fontSize=27;fontStyle=1" vertex="1" parent="MoZW9BYMlRde97nalndC-66">
          <mxGeometry y="500" width="374" height="40" as="geometry" />
        </mxCell>
        <mxCell id="MoZW9BYMlRde97nalndC-78" value="&amp;nbsp;- numberOfLikes: Int?" style="text;whiteSpace=wrap;html=1;fontSize=27;fontStyle=1" vertex="1" parent="MoZW9BYMlRde97nalndC-66">
          <mxGeometry y="540" width="374" height="40" as="geometry" />
        </mxCell>
        <mxCell id="MoZW9BYMlRde97nalndC-79" value="- numberOfComments: Int?" style="text;whiteSpace=wrap;html=1;fontSize=27;fontStyle=1" vertex="1" parent="MoZW9BYMlRde97nalndC-66">
          <mxGeometry y="580" width="374" height="50" as="geometry" />
        </mxCell>
        <mxCell id="MoZW9BYMlRde97nalndC-80" value="- numberOfDislikes: Int?" style="text;whiteSpace=wrap;html=1;fontSize=27;fontStyle=1" vertex="1" parent="MoZW9BYMlRde97nalndC-66">
          <mxGeometry y="630" width="374" height="40" as="geometry" />
        </mxCell>
        <mxCell id="MoZW9BYMlRde97nalndC-81" value="" style="line;strokeWidth=1;fillColor=none;align=left;verticalAlign=middle;spacingTop=-1;spacingLeft=3;spacingRight=3;rotatable=0;labelPosition=right;points=[];portConstraint=eastwest;strokeColor=inherit;fontSize=27;fontStyle=1" vertex="1" parent="MoZW9BYMlRde97nalndC-66">
          <mxGeometry y="670" width="374" height="8" as="geometry" />
        </mxCell>
        <mxCell id="MoZW9BYMlRde97nalndC-82" value="Video" style="swimlane;fontStyle=1;align=center;verticalAlign=top;childLayout=stackLayout;horizontal=1;startSize=26;horizontalStack=0;resizeParent=1;resizeParentMax=0;resizeLast=0;collapsible=1;marginBottom=0;whiteSpace=wrap;html=1;fontSize=27;" vertex="1" parent="1">
          <mxGeometry x="-430" y="2650" width="450" height="1028" as="geometry" />
        </mxCell>
        <mxCell id="MoZW9BYMlRde97nalndC-83" value="- id: Int" style="text;strokeColor=none;fillColor=none;align=left;verticalAlign=top;spacingLeft=4;spacingRight=4;overflow=hidden;rotatable=0;points=[[0,0.5],[1,0.5]];portConstraint=eastwest;whiteSpace=wrap;html=1;fontSize=27;fontStyle=1" vertex="1" parent="MoZW9BYMlRde97nalndC-82">
          <mxGeometry y="26" width="450" height="26" as="geometry" />
        </mxCell>
        <mxCell id="MoZW9BYMlRde97nalndC-84" value="&amp;nbsp;- alternativeTitle: String" style="text;whiteSpace=wrap;html=1;fontSize=27;fontStyle=1" vertex="1" parent="MoZW9BYMlRde97nalndC-82">
          <mxGeometry y="52" width="450" height="40" as="geometry" />
        </mxCell>
        <mxCell id="MoZW9BYMlRde97nalndC-85" value="&amp;nbsp;- language: String" style="text;whiteSpace=wrap;html=1;fontSize=27;fontStyle=1" vertex="1" parent="MoZW9BYMlRde97nalndC-82">
          <mxGeometry y="92" width="450" height="40" as="geometry" />
        </mxCell>
        <mxCell id="MoZW9BYMlRde97nalndC-86" value="- subtitles: List&amp;lt;String&amp;gt;" style="text;whiteSpace=wrap;html=1;fontSize=27;fontStyle=1" vertex="1" parent="MoZW9BYMlRde97nalndC-82">
          <mxGeometry y="132" width="450" height="40" as="geometry" />
        </mxCell>
        <mxCell id="MoZW9BYMlRde97nalndC-87" value="&amp;nbsp;- copyrightHolder: String?" style="text;whiteSpace=wrap;html=1;fontSize=27;fontStyle=1" vertex="1" parent="MoZW9BYMlRde97nalndC-82">
          <mxGeometry y="172" width="450" height="40" as="geometry" />
        </mxCell>
        <mxCell id="MoZW9BYMlRde97nalndC-88" value="&lt;p data-pm-slice=&quot;0 0 []&quot;&gt;- significance: String?&lt;/p&gt;" style="text;whiteSpace=wrap;html=1;fontSize=27;fontStyle=1" vertex="1" parent="MoZW9BYMlRde97nalndC-82">
          <mxGeometry y="212" width="450" height="48" as="geometry" />
        </mxCell>
        <mxCell id="MoZW9BYMlRde97nalndC-89" value="&lt;p data-pm-slice=&quot;0 0 []&quot;&gt;- historicalFigures: List&amp;lt;String&amp;gt;&lt;/p&gt;" style="text;whiteSpace=wrap;html=1;fontSize=27;fontStyle=1" vertex="1" parent="MoZW9BYMlRde97nalndC-82">
          <mxGeometry y="260" width="450" height="60" as="geometry" />
        </mxCell>
        <mxCell id="MoZW9BYMlRde97nalndC-90" value="-&amp;nbsp;cameraman: List&amp;lt;String&amp;gt;" style="text;whiteSpace=wrap;html=1;fontSize=27;fontStyle=1" vertex="1" parent="MoZW9BYMlRde97nalndC-82">
          <mxGeometry y="320" width="450" height="50" as="geometry" />
        </mxCell>
        <mxCell id="MoZW9BYMlRde97nalndC-91" value="-&amp;nbsp;cinematographer: List&amp;lt;String&amp;gt;" style="text;whiteSpace=wrap;html=1;fontSize=27;fontStyle=1" vertex="1" parent="MoZW9BYMlRde97nalndC-82">
          <mxGeometry y="370" width="450" height="40" as="geometry" />
        </mxCell>
        <mxCell id="MoZW9BYMlRde97nalndC-92" value="-&amp;nbsp;cast: List&amp;lt;String&amp;gt;" style="text;whiteSpace=wrap;html=1;fontSize=27;fontStyle=1" vertex="1" parent="MoZW9BYMlRde97nalndC-82">
          <mxGeometry y="410" width="450" height="40" as="geometry" />
        </mxCell>
        <mxCell id="MoZW9BYMlRde97nalndC-93" value="-&amp;nbsp;uploadDate: DateTime" style="text;whiteSpace=wrap;html=1;fontSize=27;fontStyle=1" vertex="1" parent="MoZW9BYMlRde97nalndC-82">
          <mxGeometry y="450" width="450" height="40" as="geometry" />
        </mxCell>
        <mxCell id="MoZW9BYMlRde97nalndC-94" value="-&amp;nbsp;ageRating: String?" style="text;whiteSpace=wrap;html=1;fontSize=27;fontStyle=1" vertex="1" parent="MoZW9BYMlRde97nalndC-82">
          <mxGeometry y="490" width="450" height="40" as="geometry" />
        </mxCell>
        <mxCell id="MoZW9BYMlRde97nalndC-95" value="-&amp;nbsp;resolution: String?" style="text;whiteSpace=wrap;html=1;fontSize=27;fontStyle=1" vertex="1" parent="MoZW9BYMlRde97nalndC-82">
          <mxGeometry y="530" width="450" height="40" as="geometry" />
        </mxCell>
        <mxCell id="MoZW9BYMlRde97nalndC-96" value="-&amp;nbsp;publicationDate: DateTime?" style="text;whiteSpace=wrap;html=1;fontSize=27;fontStyle=1" vertex="1" parent="MoZW9BYMlRde97nalndC-82">
          <mxGeometry y="570" width="450" height="40" as="geometry" />
        </mxCell>
        <mxCell id="MoZW9BYMlRde97nalndC-97" value="-&amp;nbsp;relatedArticles: List&amp;lt;String&amp;gt;" style="text;whiteSpace=wrap;html=1;fontSize=27;fontStyle=1" vertex="1" parent="MoZW9BYMlRde97nalndC-82">
          <mxGeometry y="610" width="450" height="40" as="geometry" />
        </mxCell>
        <mxCell id="MoZW9BYMlRde97nalndC-98" value="-&amp;nbsp;duration: String?" style="text;whiteSpace=wrap;html=1;fontSize=27;fontStyle=1" vertex="1" parent="MoZW9BYMlRde97nalndC-82">
          <mxGeometry y="650" width="450" height="40" as="geometry" />
        </mxCell>
        <mxCell id="MoZW9BYMlRde97nalndC-99" value="-&amp;nbsp;location: String?" style="text;whiteSpace=wrap;html=1;fontSize=27;fontStyle=1" vertex="1" parent="MoZW9BYMlRde97nalndC-82">
          <mxGeometry y="690" width="450" height="50" as="geometry" />
        </mxCell>
        <mxCell id="MoZW9BYMlRde97nalndC-100" value="&lt;span style=&quot;color: rgb(0, 0, 0); font-family: Helvetica; font-size: 27px; font-style: normal; font-variant-ligatures: normal; font-variant-caps: normal; letter-spacing: normal; orphans: 2; text-align: left; text-indent: 0px; text-transform: none; widows: 2; word-spacing: 0px; -webkit-text-stroke-width: 0px; white-space: normal; background-color: rgb(251, 251, 251); text-decoration-thickness: initial; text-decoration-style: initial; text-decoration-color: initial; float: none; display: inline !important;&quot;&gt;- director: List&amp;lt;String&amp;gt;&lt;/span&gt;" style="text;whiteSpace=wrap;html=1;fontStyle=1" vertex="1" parent="MoZW9BYMlRde97nalndC-82">
          <mxGeometry y="740" width="450" height="60" as="geometry" />
        </mxCell>
        <mxCell id="MoZW9BYMlRde97nalndC-101" value="- source: String?" style="text;whiteSpace=wrap;html=1;fontSize=27;fontStyle=1" vertex="1" parent="MoZW9BYMlRde97nalndC-82">
          <mxGeometry y="800" width="450" height="40" as="geometry" />
        </mxCell>
        <mxCell id="MoZW9BYMlRde97nalndC-102" value="- preservationStatus: String?" style="text;whiteSpace=wrap;html=1;fontSize=27;fontStyle=1" vertex="1" parent="MoZW9BYMlRde97nalndC-82">
          <mxGeometry y="840" width="450" height="40" as="geometry" />
        </mxCell>
        <mxCell id="MoZW9BYMlRde97nalndC-103" value="- eventDate: DateTime?" style="text;whiteSpace=wrap;html=1;fontSize=27;fontStyle=1" vertex="1" parent="MoZW9BYMlRde97nalndC-82">
          <mxGeometry y="880" width="450" height="40" as="geometry" />
        </mxCell>
        <mxCell id="MoZW9BYMlRde97nalndC-104" value="-&amp;nbsp; producer: List&amp;lt;String&amp;gt;" style="text;whiteSpace=wrap;html=1;fontSize=27;fontStyle=1" vertex="1" parent="MoZW9BYMlRde97nalndC-82">
          <mxGeometry y="920" width="450" height="40" as="geometry" />
        </mxCell>
        <mxCell id="MoZW9BYMlRde97nalndC-105" value="" style="line;strokeWidth=1;fillColor=none;align=left;verticalAlign=middle;spacingTop=-1;spacingLeft=3;spacingRight=3;rotatable=0;labelPosition=right;points=[];portConstraint=eastwest;strokeColor=inherit;fontSize=27;fontStyle=1" vertex="1" parent="MoZW9BYMlRde97nalndC-82">
          <mxGeometry y="960" width="450" height="8" as="geometry" />
        </mxCell>
        <mxCell id="MoZW9BYMlRde97nalndC-106" value="&lt;span style=&quot;color: rgb(0, 0, 0); font-family: Helvetica; font-size: 27px; font-style: normal; font-variant-ligatures: normal; font-variant-caps: normal; letter-spacing: normal; orphans: 2; text-align: left; text-indent: 0px; text-transform: none; widows: 2; word-spacing: 0px; -webkit-text-stroke-width: 0px; white-space: normal; background-color: rgb(251, 251, 251); text-decoration-thickness: initial; text-decoration-style: initial; text-decoration-color: initial; float: none; display: inline !important;&quot;&gt;- publisher: String&lt;/span&gt;" style="text;whiteSpace=wrap;html=1;fontStyle=1" vertex="1" parent="MoZW9BYMlRde97nalndC-82">
          <mxGeometry y="968" width="450" height="60" as="geometry" />
        </mxCell>
        <mxCell id="MoZW9BYMlRde97nalndC-107" value="Book" style="swimlane;fontStyle=1;align=center;verticalAlign=top;childLayout=stackLayout;horizontal=1;startSize=26;horizontalStack=0;resizeParent=1;resizeParentMax=0;resizeLast=0;collapsible=1;marginBottom=0;whiteSpace=wrap;html=1;fontSize=27;" vertex="1" parent="1">
          <mxGeometry x="80" y="2650" width="390" height="608" as="geometry" />
        </mxCell>
        <mxCell id="MoZW9BYMlRde97nalndC-108" value="- id: Int" style="text;strokeColor=none;fillColor=none;align=left;verticalAlign=top;spacingLeft=4;spacingRight=4;overflow=hidden;rotatable=0;points=[[0,0.5],[1,0.5]];portConstraint=eastwest;whiteSpace=wrap;html=1;fontSize=27;fontStyle=1" vertex="1" parent="MoZW9BYMlRde97nalndC-107">
          <mxGeometry y="26" width="390" height="54" as="geometry" />
        </mxCell>
        <mxCell id="MoZW9BYMlRde97nalndC-109" value="&amp;nbsp;- alternativeTitle: String" style="text;whiteSpace=wrap;html=1;fontSize=27;fontStyle=1" vertex="1" parent="MoZW9BYMlRde97nalndC-107">
          <mxGeometry y="80" width="390" height="40" as="geometry" />
        </mxCell>
        <mxCell id="MoZW9BYMlRde97nalndC-110" value="- ISBN: String" style="text;whiteSpace=wrap;html=1;fontSize=27;fontStyle=1" vertex="1" parent="MoZW9BYMlRde97nalndC-107">
          <mxGeometry y="120" width="390" height="40" as="geometry" />
        </mxCell>
        <mxCell id="MoZW9BYMlRde97nalndC-111" value="- language: String?" style="text;whiteSpace=wrap;html=1;fontSize=27;fontStyle=1" vertex="1" parent="MoZW9BYMlRde97nalndC-107">
          <mxGeometry y="160" width="390" height="40" as="geometry" />
        </mxCell>
        <mxCell id="MoZW9BYMlRde97nalndC-112" value="- author: String?" style="text;whiteSpace=wrap;html=1;fontSize=27;fontStyle=1" vertex="1" parent="MoZW9BYMlRde97nalndC-107">
          <mxGeometry y="200" width="390" height="40" as="geometry" />
        </mxCell>
        <mxCell id="MoZW9BYMlRde97nalndC-113" value="- coAuthors: List&amp;lt;String&amp;gt;" style="text;whiteSpace=wrap;html=1;fontSize=27;fontStyle=1" vertex="1" parent="MoZW9BYMlRde97nalndC-107">
          <mxGeometry y="240" width="390" height="40" as="geometry" />
        </mxCell>
        <mxCell id="MoZW9BYMlRde97nalndC-114" value="- editor: List&amp;lt;String&amp;gt;" style="text;whiteSpace=wrap;html=1;fontSize=27;fontStyle=1" vertex="1" parent="MoZW9BYMlRde97nalndC-107">
          <mxGeometry y="280" width="390" height="40" as="geometry" />
        </mxCell>
        <mxCell id="MoZW9BYMlRde97nalndC-115" value="-&amp;nbsp;edition: String?" style="text;whiteSpace=wrap;html=1;fontSize=27;fontStyle=1" vertex="1" parent="MoZW9BYMlRde97nalndC-107">
          <mxGeometry y="320" width="390" height="40" as="geometry" />
        </mxCell>
        <mxCell id="MoZW9BYMlRde97nalndC-116" value="-&amp;nbsp;numberOfPages: String?" style="text;whiteSpace=wrap;html=1;fontSize=27;fontStyle=1" vertex="1" parent="MoZW9BYMlRde97nalndC-107">
          <mxGeometry y="360" width="390" height="40" as="geometry" />
        </mxCell>
        <mxCell id="MoZW9BYMlRde97nalndC-117" value="-&amp;nbsp;bookType: String?" style="text;whiteSpace=wrap;html=1;fontSize=27;fontStyle=1" vertex="1" parent="MoZW9BYMlRde97nalndC-107">
          <mxGeometry y="400" width="390" height="40" as="geometry" />
        </mxCell>
        <mxCell id="MoZW9BYMlRde97nalndC-118" value="-&amp;nbsp;publisher: String?" style="text;whiteSpace=wrap;html=1;fontSize=27;fontStyle=1" vertex="1" parent="MoZW9BYMlRde97nalndC-107">
          <mxGeometry y="440" width="390" height="40" as="geometry" />
        </mxCell>
        <mxCell id="MoZW9BYMlRde97nalndC-119" value="significant: String?" style="text;whiteSpace=wrap;html=1;fontSize=27;fontStyle=1" vertex="1" parent="MoZW9BYMlRde97nalndC-107">
          <mxGeometry y="480" width="390" height="40" as="geometry" />
        </mxCell>
        <mxCell id="MoZW9BYMlRde97nalndC-120" value="-&amp;nbsp;publicationDate: DateTime?" style="text;whiteSpace=wrap;html=1;fontSize=27;fontStyle=1" vertex="1" parent="MoZW9BYMlRde97nalndC-107">
          <mxGeometry y="520" width="390" height="40" as="geometry" />
        </mxCell>
        <mxCell id="MoZW9BYMlRde97nalndC-121" value="-&amp;nbsp;copyrightHolder: String?" style="text;whiteSpace=wrap;html=1;fontSize=27;fontStyle=1" vertex="1" parent="MoZW9BYMlRde97nalndC-107">
          <mxGeometry y="560" width="390" height="40" as="geometry" />
        </mxCell>
        <mxCell id="MoZW9BYMlRde97nalndC-122" value="" style="line;strokeWidth=1;fillColor=none;align=left;verticalAlign=middle;spacingTop=-1;spacingLeft=3;spacingRight=3;rotatable=0;labelPosition=right;points=[];portConstraint=eastwest;strokeColor=inherit;fontSize=27;fontStyle=1" vertex="1" parent="MoZW9BYMlRde97nalndC-107">
          <mxGeometry y="600" width="390" height="8" as="geometry" />
        </mxCell>
        <mxCell id="MoZW9BYMlRde97nalndC-123" value="Music" style="swimlane;fontStyle=1;align=center;verticalAlign=top;childLayout=stackLayout;horizontal=1;startSize=26;horizontalStack=0;resizeParent=1;resizeParentMax=0;resizeLast=0;collapsible=1;marginBottom=0;whiteSpace=wrap;html=1;fontSize=27;" vertex="1" parent="1">
          <mxGeometry x="540" y="2650" width="440" height="1034" as="geometry" />
        </mxCell>
        <mxCell id="MoZW9BYMlRde97nalndC-124" value="-&amp;nbsp;id: Int" style="text;whiteSpace=wrap;html=1;fontSize=27;fontStyle=1" vertex="1" parent="MoZW9BYMlRde97nalndC-123">
          <mxGeometry y="26" width="440" height="40" as="geometry" />
        </mxCell>
        <mxCell id="MoZW9BYMlRde97nalndC-125" value="-&amp;nbsp;language: String" style="text;whiteSpace=wrap;html=1;fontSize=27;fontStyle=1" vertex="1" parent="MoZW9BYMlRde97nalndC-123">
          <mxGeometry y="66" width="440" height="40" as="geometry" />
        </mxCell>
        <mxCell id="MoZW9BYMlRde97nalndC-126" value="-&amp;nbsp;duration: String?" style="text;whiteSpace=wrap;html=1;fontSize=27;fontStyle=1" vertex="1" parent="MoZW9BYMlRde97nalndC-123">
          <mxGeometry y="106" width="440" height="40" as="geometry" />
        </mxCell>
        <mxCell id="MoZW9BYMlRde97nalndC-127" value="-&amp;nbsp;musicProducer: String?" style="text;whiteSpace=wrap;html=1;fontSize=27;fontStyle=1" vertex="1" parent="MoZW9BYMlRde97nalndC-123">
          <mxGeometry y="146" width="440" height="40" as="geometry" />
        </mxCell>
        <mxCell id="MoZW9BYMlRde97nalndC-128" value="-&amp;nbsp;composer: String?" style="text;whiteSpace=wrap;html=1;fontSize=27;fontStyle=1" vertex="1" parent="MoZW9BYMlRde97nalndC-123">
          <mxGeometry y="186" width="440" height="40" as="geometry" />
        </mxCell>
        <mxCell id="MoZW9BYMlRde97nalndC-129" value="-&amp;nbsp;alternativeTitle: String?" style="text;whiteSpace=wrap;html=1;fontSize=27;fontStyle=1" vertex="1" parent="MoZW9BYMlRde97nalndC-123">
          <mxGeometry y="226" width="440" height="40" as="geometry" />
        </mxCell>
        <mxCell id="MoZW9BYMlRde97nalndC-130" value="-&amp;nbsp;singer: String?" style="text;whiteSpace=wrap;html=1;fontSize=27;fontStyle=1" vertex="1" parent="MoZW9BYMlRde97nalndC-123">
          <mxGeometry y="266" width="440" height="40" as="geometry" />
        </mxCell>
        <mxCell id="MoZW9BYMlRde97nalndC-131" value="-&amp;nbsp;additionalSinger: List&amp;lt;String&amp;gt;" style="text;whiteSpace=wrap;html=1;fontSize=27;fontStyle=1" vertex="1" parent="MoZW9BYMlRde97nalndC-123">
          <mxGeometry y="306" width="440" height="40" as="geometry" />
        </mxCell>
        <mxCell id="MoZW9BYMlRde97nalndC-132" value="-&amp;nbsp;musicType: String?" style="text;whiteSpace=wrap;html=1;fontSize=27;fontStyle=1" vertex="1" parent="MoZW9BYMlRde97nalndC-123">
          <mxGeometry y="346" width="440" height="40" as="geometry" />
        </mxCell>
        <mxCell id="MoZW9BYMlRde97nalndC-133" value="-&amp;nbsp;poemAuthor: List&amp;lt;String&amp;gt;" style="text;whiteSpace=wrap;html=1;fontSize=27;fontStyle=1" vertex="1" parent="MoZW9BYMlRde97nalndC-123">
          <mxGeometry y="386" width="440" height="40" as="geometry" />
        </mxCell>
        <mxCell id="MoZW9BYMlRde97nalndC-134" value="-&amp;nbsp;melodyAuthor: List&amp;lt;String&amp;gt;" style="text;whiteSpace=wrap;html=1;fontSize=27;fontStyle=1" vertex="1" parent="MoZW9BYMlRde97nalndC-123">
          <mxGeometry y="426" width="440" height="40" as="geometry" />
        </mxCell>
        <mxCell id="MoZW9BYMlRde97nalndC-135" value="-&amp;nbsp;instrument: List&amp;lt;String&amp;gt;" style="text;whiteSpace=wrap;html=1;fontSize=27;fontStyle=1" vertex="1" parent="MoZW9BYMlRde97nalndC-123">
          <mxGeometry y="466" width="440" height="40" as="geometry" />
        </mxCell>
        <mxCell id="MoZW9BYMlRde97nalndC-136" value="-&amp;nbsp;instrumentPlayer: List&amp;lt;String&amp;gt;" style="text;whiteSpace=wrap;html=1;fontSize=27;fontStyle=1" vertex="1" parent="MoZW9BYMlRde97nalndC-123">
          <mxGeometry y="506" width="440" height="40" as="geometry" />
        </mxCell>
        <mxCell id="MoZW9BYMlRde97nalndC-137" value="-&amp;nbsp;audioQuality: String?" style="text;whiteSpace=wrap;html=1;fontSize=27;fontStyle=1" vertex="1" parent="MoZW9BYMlRde97nalndC-123">
          <mxGeometry y="546" width="440" height="40" as="geometry" />
        </mxCell>
        <mxCell id="MoZW9BYMlRde97nalndC-138" value="-&amp;nbsp;musicAlbum: String?" style="text;whiteSpace=wrap;html=1;fontSize=27;fontStyle=1" vertex="1" parent="MoZW9BYMlRde97nalndC-123">
          <mxGeometry y="586" width="440" height="40" as="geometry" />
        </mxCell>
        <mxCell id="MoZW9BYMlRde97nalndC-139" value="-&amp;nbsp;musicNumber: String?" style="text;whiteSpace=wrap;html=1;fontSize=27;fontStyle=1" vertex="1" parent="MoZW9BYMlRde97nalndC-123">
          <mxGeometry y="626" width="440" height="40" as="geometry" />
        </mxCell>
        <mxCell id="MoZW9BYMlRde97nalndC-140" value="-&amp;nbsp;recorder: String?" style="text;whiteSpace=wrap;html=1;fontSize=27;fontStyle=1" vertex="1" parent="MoZW9BYMlRde97nalndC-123">
          <mxGeometry y="666" width="440" height="40" as="geometry" />
        </mxCell>
        <mxCell id="MoZW9BYMlRde97nalndC-141" value="-&amp;nbsp;historicalFigures: List&amp;lt;String&amp;gt;" style="text;whiteSpace=wrap;html=1;fontSize=27;fontStyle=1" vertex="1" parent="MoZW9BYMlRde97nalndC-123">
          <mxGeometry y="706" width="440" height="40" as="geometry" />
        </mxCell>
        <mxCell id="MoZW9BYMlRde97nalndC-142" value="-&amp;nbsp;eventDate: DateTime?" style="text;whiteSpace=wrap;html=1;fontSize=27;fontStyle=1" vertex="1" parent="MoZW9BYMlRde97nalndC-123">
          <mxGeometry y="746" width="440" height="40" as="geometry" />
        </mxCell>
        <mxCell id="MoZW9BYMlRde97nalndC-143" value="-&amp;nbsp;location: String?" style="text;whiteSpace=wrap;html=1;fontSize=27;fontStyle=1" vertex="1" parent="MoZW9BYMlRde97nalndC-123">
          <mxGeometry y="786" width="440" height="40" as="geometry" />
        </mxCell>
        <mxCell id="MoZW9BYMlRde97nalndC-144" value="-&amp;nbsp;copyrightHolder: String?" style="text;whiteSpace=wrap;html=1;fontSize=27;fontStyle=1" vertex="1" parent="MoZW9BYMlRde97nalndC-123">
          <mxGeometry y="826" width="440" height="40" as="geometry" />
        </mxCell>
        <mxCell id="MoZW9BYMlRde97nalndC-145" value="-&amp;nbsp;relatedArticles: List&amp;lt;String&amp;gt;" style="text;whiteSpace=wrap;html=1;fontSize=27;fontStyle=1" vertex="1" parent="MoZW9BYMlRde97nalndC-123">
          <mxGeometry y="866" width="440" height="40" as="geometry" />
        </mxCell>
        <mxCell id="MoZW9BYMlRde97nalndC-146" value="-&amp;nbsp;source: String?" style="text;whiteSpace=wrap;html=1;fontSize=27;fontStyle=1" vertex="1" parent="MoZW9BYMlRde97nalndC-123">
          <mxGeometry y="906" width="440" height="40" as="geometry" />
        </mxCell>
        <mxCell id="MoZW9BYMlRde97nalndC-147" value="-&amp;nbsp;publicationDate: DateTime?" style="text;whiteSpace=wrap;html=1;fontSize=27;fontStyle=1" vertex="1" parent="MoZW9BYMlRde97nalndC-123">
          <mxGeometry y="946" width="440" height="40" as="geometry" />
        </mxCell>
        <mxCell id="MoZW9BYMlRde97nalndC-148" value="-&amp;nbsp;significance: String?" style="text;whiteSpace=wrap;html=1;fontSize=27;fontStyle=1" vertex="1" parent="MoZW9BYMlRde97nalndC-123">
          <mxGeometry y="986" width="440" height="40" as="geometry" />
        </mxCell>
        <mxCell id="MoZW9BYMlRde97nalndC-149" value="" style="line;strokeWidth=1;fillColor=none;align=left;verticalAlign=middle;spacingTop=-1;spacingLeft=3;spacingRight=3;rotatable=0;labelPosition=right;points=[];portConstraint=eastwest;strokeColor=inherit;fontSize=27;fontStyle=1" vertex="1" parent="MoZW9BYMlRde97nalndC-123">
          <mxGeometry y="1026" width="440" height="8" as="geometry" />
        </mxCell>
        <mxCell id="MoZW9BYMlRde97nalndC-150" value="Photo" style="swimlane;fontStyle=1;align=center;verticalAlign=top;childLayout=stackLayout;horizontal=1;startSize=26;horizontalStack=0;resizeParent=1;resizeParentMax=0;resizeLast=0;collapsible=1;marginBottom=0;whiteSpace=wrap;html=1;fontSize=27;" vertex="1" parent="1">
          <mxGeometry x="1028" y="2650" width="425" height="604" as="geometry" />
        </mxCell>
        <mxCell id="MoZW9BYMlRde97nalndC-151" value="-&amp;nbsp; id: Int" style="text;whiteSpace=wrap;html=1;fontSize=27;fontStyle=1" vertex="1" parent="MoZW9BYMlRde97nalndC-150">
          <mxGeometry y="26" width="425" height="36" as="geometry" />
        </mxCell>
        <mxCell id="MoZW9BYMlRde97nalndC-152" value="-&amp;nbsp;format: String?" style="text;whiteSpace=wrap;html=1;fontSize=27;fontStyle=1" vertex="1" parent="MoZW9BYMlRde97nalndC-150">
          <mxGeometry y="62" width="425" height="40" as="geometry" />
        </mxCell>
        <mxCell id="MoZW9BYMlRde97nalndC-153" value="-&amp;nbsp;aspectRatio: String?" style="text;whiteSpace=wrap;html=1;fontSize=27;fontStyle=1" vertex="1" parent="MoZW9BYMlRde97nalndC-150">
          <mxGeometry y="102" width="425" height="40" as="geometry" />
        </mxCell>
        <mxCell id="MoZW9BYMlRde97nalndC-154" value="-&amp;nbsp;photoLocation: String?" style="text;whiteSpace=wrap;html=1;fontSize=27;fontStyle=1" vertex="1" parent="MoZW9BYMlRde97nalndC-150">
          <mxGeometry y="142" width="425" height="40" as="geometry" />
        </mxCell>
        <mxCell id="MoZW9BYMlRde97nalndC-155" value="-&amp;nbsp;photographer: String?" style="text;whiteSpace=wrap;html=1;fontSize=27;fontStyle=1" vertex="1" parent="MoZW9BYMlRde97nalndC-150">
          <mxGeometry y="182" width="425" height="40" as="geometry" />
        </mxCell>
        <mxCell id="MoZW9BYMlRde97nalndC-156" value="-&amp;nbsp;cameraMake: String?" style="text;whiteSpace=wrap;html=1;fontSize=27;fontStyle=1" vertex="1" parent="MoZW9BYMlRde97nalndC-150">
          <mxGeometry y="222" width="425" height="40" as="geometry" />
        </mxCell>
        <mxCell id="MoZW9BYMlRde97nalndC-157" value="-&amp;nbsp;cameraModel: String?" style="text;whiteSpace=wrap;html=1;fontSize=27;fontStyle=1" vertex="1" parent="MoZW9BYMlRde97nalndC-150">
          <mxGeometry y="262" width="425" height="40" as="geometry" />
        </mxCell>
        <mxCell id="MoZW9BYMlRde97nalndC-158" value="-&amp;nbsp;capturedDate: DateTime?" style="text;whiteSpace=wrap;html=1;fontSize=27;fontStyle=1" vertex="1" parent="MoZW9BYMlRde97nalndC-150">
          <mxGeometry y="302" width="425" height="40" as="geometry" />
        </mxCell>
        <mxCell id="MoZW9BYMlRde97nalndC-159" value="-&amp;nbsp;resolution: String?" style="text;whiteSpace=wrap;html=1;fontSize=27;fontStyle=1" vertex="1" parent="MoZW9BYMlRde97nalndC-150">
          <mxGeometry y="342" width="425" height="40" as="geometry" />
        </mxCell>
        <mxCell id="MoZW9BYMlRde97nalndC-160" value="-&amp;nbsp;historicalFigures: List&amp;lt;String&amp;gt;" style="text;whiteSpace=wrap;html=1;fontSize=27;fontStyle=1" vertex="1" parent="MoZW9BYMlRde97nalndC-150">
          <mxGeometry y="382" width="425" height="54" as="geometry" />
        </mxCell>
        <mxCell id="MoZW9BYMlRde97nalndC-161" value="-&amp;nbsp;eventDate: DateTime?" style="text;whiteSpace=wrap;html=1;fontSize=27;fontStyle=1" vertex="1" parent="MoZW9BYMlRde97nalndC-150">
          <mxGeometry y="436" width="425" height="40" as="geometry" />
        </mxCell>
        <mxCell id="MoZW9BYMlRde97nalndC-162" value="-&amp;nbsp;relatedArticles: List&amp;lt;String&amp;gt;" style="text;whiteSpace=wrap;html=1;fontSize=27;fontStyle=1" vertex="1" parent="MoZW9BYMlRde97nalndC-150">
          <mxGeometry y="476" width="425" height="40" as="geometry" />
        </mxCell>
        <mxCell id="MoZW9BYMlRde97nalndC-163" value="-&amp;nbsp;publicationDate: DateTime?" style="text;whiteSpace=wrap;html=1;fontSize=27;fontStyle=1" vertex="1" parent="MoZW9BYMlRde97nalndC-150">
          <mxGeometry y="516" width="425" height="40" as="geometry" />
        </mxCell>
        <mxCell id="MoZW9BYMlRde97nalndC-164" value="-&amp;nbsp;significance: String?" style="text;whiteSpace=wrap;html=1;fontSize=27;fontStyle=1" vertex="1" parent="MoZW9BYMlRde97nalndC-150">
          <mxGeometry y="556" width="425" height="40" as="geometry" />
        </mxCell>
        <mxCell id="MoZW9BYMlRde97nalndC-165" value="" style="line;strokeWidth=1;fillColor=none;align=left;verticalAlign=middle;spacingTop=-1;spacingLeft=3;spacingRight=3;rotatable=0;labelPosition=right;points=[];portConstraint=eastwest;strokeColor=inherit;fontSize=27;fontStyle=1" vertex="1" parent="MoZW9BYMlRde97nalndC-150">
          <mxGeometry y="596" width="425" height="8" as="geometry" />
        </mxCell>
        <mxCell id="MoZW9BYMlRde97nalndC-166" value="Preference" style="swimlane;fontStyle=1;align=center;verticalAlign=top;childLayout=stackLayout;horizontal=1;startSize=26;horizontalStack=0;resizeParent=1;resizeParentMax=0;resizeLast=0;collapsible=1;marginBottom=0;whiteSpace=wrap;html=1;fontSize=27;" vertex="1" parent="1">
          <mxGeometry x="810" y="-340" width="400" height="168" as="geometry" />
        </mxCell>
        <mxCell id="MoZW9BYMlRde97nalndC-167" value="- id: Int" style="text;strokeColor=none;fillColor=none;align=left;verticalAlign=top;spacingLeft=4;spacingRight=4;overflow=hidden;rotatable=0;points=[[0,0.5],[1,0.5]];portConstraint=eastwest;whiteSpace=wrap;html=1;fontSize=27;fontStyle=1" vertex="1" parent="MoZW9BYMlRde97nalndC-166">
          <mxGeometry y="26" width="400" height="64" as="geometry" />
        </mxCell>
        <mxCell id="MoZW9BYMlRde97nalndC-168" value="- name: String" style="text;whiteSpace=wrap;html=1;fontSize=27;fontStyle=1" vertex="1" parent="MoZW9BYMlRde97nalndC-166">
          <mxGeometry y="90" width="400" height="70" as="geometry" />
        </mxCell>
        <mxCell id="MoZW9BYMlRde97nalndC-169" value="" style="line;strokeWidth=1;fillColor=none;align=left;verticalAlign=middle;spacingTop=-1;spacingLeft=3;spacingRight=3;rotatable=0;labelPosition=right;points=[];portConstraint=eastwest;strokeColor=inherit;fontSize=27;fontStyle=1" vertex="1" parent="MoZW9BYMlRde97nalndC-166">
          <mxGeometry y="160" width="400" height="8" as="geometry" />
        </mxCell>
        <mxCell id="MoZW9BYMlRde97nalndC-170" value="Feedback" style="swimlane;fontStyle=1;align=center;verticalAlign=top;childLayout=stackLayout;horizontal=1;startSize=26;horizontalStack=0;resizeParent=1;resizeParentMax=0;resizeLast=0;collapsible=1;marginBottom=0;whiteSpace=wrap;html=1;fontSize=27;" vertex="1" parent="1">
          <mxGeometry x="830" y="-660" width="470" height="238" as="geometry" />
        </mxCell>
        <mxCell id="MoZW9BYMlRde97nalndC-171" value="- id: Int" style="text;strokeColor=none;fillColor=none;align=left;verticalAlign=top;spacingLeft=4;spacingRight=4;overflow=hidden;rotatable=0;points=[[0,0.5],[1,0.5]];portConstraint=eastwest;whiteSpace=wrap;html=1;fontSize=27;fontStyle=1" vertex="1" parent="MoZW9BYMlRde97nalndC-170">
          <mxGeometry y="26" width="470" height="44" as="geometry" />
        </mxCell>
        <mxCell id="MoZW9BYMlRde97nalndC-172" value="&amp;nbsp;- content: String" style="text;whiteSpace=wrap;html=1;fontSize=27;fontStyle=1" vertex="1" parent="MoZW9BYMlRde97nalndC-170">
          <mxGeometry y="70" width="470" height="50" as="geometry" />
        </mxCell>
        <mxCell id="MoZW9BYMlRde97nalndC-173" value="- createdAt: DateTime" style="text;whiteSpace=wrap;html=1;fontSize=27;fontStyle=1" vertex="1" parent="MoZW9BYMlRde97nalndC-170">
          <mxGeometry y="120" width="470" height="60" as="geometry" />
        </mxCell>
        <mxCell id="MoZW9BYMlRde97nalndC-174" value="- rating: Int" style="text;whiteSpace=wrap;html=1;fontSize=27;fontStyle=1" vertex="1" parent="MoZW9BYMlRde97nalndC-170">
          <mxGeometry y="180" width="470" height="50" as="geometry" />
        </mxCell>
        <mxCell id="MoZW9BYMlRde97nalndC-175" value="" style="line;strokeWidth=1;fillColor=none;align=left;verticalAlign=middle;spacingTop=-1;spacingLeft=3;spacingRight=3;rotatable=0;labelPosition=right;points=[];portConstraint=eastwest;strokeColor=inherit;fontSize=27;fontStyle=1" vertex="1" parent="MoZW9BYMlRde97nalndC-170">
          <mxGeometry y="230" width="470" height="8" as="geometry" />
        </mxCell>
        <mxCell id="MoZW9BYMlRde97nalndC-176" value="" style="endArrow=none;startArrow=none;endFill=0;startFill=0;html=1;rounded=0;entryX=1.2;entryY=1.14;entryDx=0;entryDy=0;strokeWidth=3;fontSize=27;fontStyle=1;entryPerimeter=0;" edge="1" parent="1" target="MoZW9BYMlRde97nalndC-177">
          <mxGeometry width="160" relative="1" as="geometry">
            <mxPoint x="840" y="1670" as="sourcePoint" />
            <mxPoint x="1450" y="769" as="targetPoint" />
            <Array as="points">
              <mxPoint x="840" y="1454.23" />
              <mxPoint x="840" y="819" />
              <mxPoint x="900" y="819" />
            </Array>
          </mxGeometry>
        </mxCell>
        <mxCell id="MoZW9BYMlRde97nalndC-177" value="&lt;font&gt;1&lt;/font&gt;" style="text;html=1;align=center;verticalAlign=middle;resizable=0;points=[];autosize=1;strokeColor=none;fillColor=none;fontSize=27;fontStyle=1" vertex="1" parent="1">
          <mxGeometry x="1415" y="760" width="40" height="50" as="geometry" />
        </mxCell>
        <mxCell id="MoZW9BYMlRde97nalndC-178" value="&lt;span&gt;&lt;font&gt;*&lt;/font&gt;&lt;/span&gt;" style="text;html=1;align=center;verticalAlign=middle;resizable=0;points=[];autosize=1;strokeColor=none;fillColor=none;fontSize=27;fontStyle=1" vertex="1" parent="1">
          <mxGeometry x="800" y="1625" width="30" height="50" as="geometry" />
        </mxCell>
        <mxCell id="MoZW9BYMlRde97nalndC-179" value="&lt;font&gt;Manages&lt;/font&gt;" style="text;html=1;align=center;verticalAlign=middle;resizable=0;points=[];autosize=1;strokeColor=none;fillColor=none;fontSize=27;fontStyle=1" vertex="1" parent="1">
          <mxGeometry x="1210" y="755" width="130" height="50" as="geometry" />
        </mxCell>
        <mxCell id="MoZW9BYMlRde97nalndC-180" value="&lt;span style=&quot;color: rgb(0, 0, 0); font-family: Helvetica; font-style: normal; font-variant-ligatures: normal; font-variant-caps: normal; letter-spacing: normal; orphans: 2; text-align: left; text-indent: 0px; text-transform: none; widows: 2; word-spacing: 0px; -webkit-text-stroke-width: 0px; white-space: nowrap; background-color: rgb(255, 255, 255); text-decoration-thickness: initial; text-decoration-style: initial; text-decoration-color: initial; float: none; display: inline !important;&quot;&gt;1&lt;/span&gt;" style="text;whiteSpace=wrap;html=1;fontSize=27;fontStyle=1" vertex="1" parent="1">
          <mxGeometry x="1750" y="1130" width="20" height="40" as="geometry" />
        </mxCell>
        <mxCell id="MoZW9BYMlRde97nalndC-181" value="Manages" style="text;whiteSpace=wrap;html=1;fontSize=27;fontStyle=1" vertex="1" parent="1">
          <mxGeometry x="1505" y="1120" width="80" height="40" as="geometry" />
        </mxCell>
        <mxCell id="MoZW9BYMlRde97nalndC-182" value="" style="endArrow=none;html=1;endSize=12;startArrow=none;startSize=14;startFill=0;edgeStyle=orthogonalEdgeStyle;align=left;verticalAlign=bottom;rounded=0;endFill=0;strokeWidth=3;fontSize=27;entryX=0;entryY=0.5;entryDx=0;entryDy=0;fontStyle=1" edge="1" parent="1">
          <mxGeometry x="-1" y="3" relative="1" as="geometry">
            <mxPoint x="670" y="1290" as="sourcePoint" />
            <mxPoint x="1780" y="1535.9999999999995" as="targetPoint" />
            <Array as="points">
              <mxPoint x="670" y="1540" />
              <mxPoint x="1780" y="1540" />
            </Array>
          </mxGeometry>
        </mxCell>
        <mxCell id="MoZW9BYMlRde97nalndC-183" value="&lt;font&gt;1&lt;/font&gt;" style="text;html=1;align=center;verticalAlign=middle;resizable=0;points=[];autosize=1;strokeColor=none;fillColor=none;fontSize=27;fontStyle=1" vertex="1" parent="1">
          <mxGeometry x="1740" y="1495" width="40" height="50" as="geometry" />
        </mxCell>
        <mxCell id="MoZW9BYMlRde97nalndC-184" value="&lt;font&gt;*&lt;/font&gt;" style="text;html=1;align=center;verticalAlign=middle;resizable=0;points=[];autosize=1;strokeColor=none;fillColor=none;fontSize=27;fontStyle=1" vertex="1" parent="1">
          <mxGeometry x="660" y="1065" width="30" height="50" as="geometry" />
        </mxCell>
        <mxCell id="MoZW9BYMlRde97nalndC-185" value="" style="endArrow=none;html=1;endSize=12;startArrow=none;startSize=14;startFill=0;edgeStyle=orthogonalEdgeStyle;align=left;verticalAlign=bottom;rounded=0;endFill=0;strokeWidth=3;fontSize=27;entryX=0;entryY=0.25;entryDx=0;entryDy=0;fontStyle=1;exitX=0.25;exitY=1;exitDx=0;exitDy=0;" edge="1" parent="1" target="MoZW9BYMlRde97nalndC-48" source="MoZW9BYMlRde97nalndC-5">
          <mxGeometry x="-1" y="3" relative="1" as="geometry">
            <mxPoint x="100" y="1320" as="sourcePoint" />
            <mxPoint x="1570" y="1390" as="targetPoint" />
            <Array as="points">
              <mxPoint x="100" y="1250" />
              <mxPoint x="100" y="1440" />
            </Array>
          </mxGeometry>
        </mxCell>
        <mxCell id="MoZW9BYMlRde97nalndC-186" value="&lt;font&gt;1&lt;/font&gt;" style="text;html=1;align=center;verticalAlign=middle;resizable=0;points=[];autosize=1;strokeColor=none;fillColor=none;fontSize=27;fontStyle=1" vertex="1" parent="1">
          <mxGeometry x="1745" y="1395" width="40" height="50" as="geometry" />
        </mxCell>
        <mxCell id="MoZW9BYMlRde97nalndC-187" value="&lt;font&gt;*&lt;/font&gt;" style="text;html=1;align=center;verticalAlign=middle;resizable=0;points=[];autosize=1;strokeColor=none;fillColor=none;fontSize=27;fontStyle=1" vertex="1" parent="1">
          <mxGeometry x="110" y="1250" width="30" height="50" as="geometry" />
        </mxCell>
        <mxCell id="MoZW9BYMlRde97nalndC-188" value="&lt;font&gt;Belongs to&lt;/font&gt;" style="text;whiteSpace=wrap;html=1;fontSize=27;fontStyle=1" vertex="1" parent="1">
          <mxGeometry x="1120" y="1400" width="140" height="40" as="geometry" />
        </mxCell>
        <mxCell id="MoZW9BYMlRde97nalndC-189" value="&lt;font&gt;Belongs to&lt;/font&gt;" style="text;whiteSpace=wrap;html=1;fontSize=27;fontStyle=1" vertex="1" parent="1">
          <mxGeometry x="1110" y="1500" width="150" height="40" as="geometry" />
        </mxCell>
        <mxCell id="MoZW9BYMlRde97nalndC-190" value="" style="edgeStyle=elbowEdgeStyle;elbow=vertical;endArrow=block;html=1;curved=0;rounded=0;endSize=8;startSize=8;endFill=0;targetPerimeterSpacing=2;sourcePerimeterSpacing=2;exitX=0.5;exitY=0;exitDx=0;exitDy=0;fontSize=27;strokeWidth=3;fontStyle=1" edge="1" parent="1" source="MoZW9BYMlRde97nalndC-82" target="MoZW9BYMlRde97nalndC-81">
          <mxGeometry width="50" height="50" relative="1" as="geometry">
            <mxPoint x="-260" y="2353.3883495145633" as="sourcePoint" />
            <mxPoint x="240" y="2540" as="targetPoint" />
            <Array as="points">
              <mxPoint x="20" y="2570" />
            </Array>
          </mxGeometry>
        </mxCell>
        <mxCell id="MoZW9BYMlRde97nalndC-191" value="" style="line;strokeWidth=3;direction=south;html=1;perimeter=backbonePerimeter;points=[];outlineConnect=0;fontSize=27;fontStyle=1" vertex="1" parent="1">
          <mxGeometry x="99" y="2570" width="280" height="80" as="geometry" />
        </mxCell>
        <mxCell id="MoZW9BYMlRde97nalndC-192" value="" style="line;strokeWidth=3;direction=south;html=1;perimeter=backbonePerimeter;points=[];outlineConnect=0;fontSize=27;fontStyle=1" vertex="1" parent="1">
          <mxGeometry x="535" y="2570" width="280" height="81.78" as="geometry" />
        </mxCell>
        <mxCell id="MoZW9BYMlRde97nalndC-193" value="" style="line;strokeWidth=3;direction=south;html=1;perimeter=backbonePerimeter;points=[];outlineConnect=0;fontSize=27;fontStyle=1" vertex="1" parent="1">
          <mxGeometry x="1028" y="2570" width="280" height="80" as="geometry" />
        </mxCell>
        <mxCell id="MoZW9BYMlRde97nalndC-194" value="" style="endArrow=none;html=1;endSize=12;startArrow=none;startSize=14;startFill=0;edgeStyle=orthogonalEdgeStyle;align=left;verticalAlign=bottom;rounded=0;exitX=1;exitY=0.5;exitDx=0;exitDy=0;endFill=0;strokeWidth=3;fontSize=27;fontStyle=1" edge="1" parent="1">
          <mxGeometry x="-1" y="3" relative="1" as="geometry">
            <mxPoint x="460" y="2267" as="sourcePoint" />
            <mxPoint x="1780" y="1620" as="targetPoint" />
            <Array as="points">
              <mxPoint x="1420" y="2267" />
              <mxPoint x="1420" y="1630" />
              <mxPoint x="1780" y="1630" />
            </Array>
          </mxGeometry>
        </mxCell>
        <mxCell id="MoZW9BYMlRde97nalndC-195" value="&lt;font&gt;1&lt;/font&gt;" style="text;html=1;align=center;verticalAlign=middle;resizable=0;points=[];autosize=1;strokeColor=none;fillColor=none;fontSize=27;fontStyle=1" vertex="1" parent="1">
          <mxGeometry x="1745" y="1585" width="40" height="50" as="geometry" />
        </mxCell>
        <mxCell id="MoZW9BYMlRde97nalndC-196" value="&lt;span&gt;&lt;font&gt;*&lt;/font&gt;&lt;/span&gt;" style="text;html=1;align=center;verticalAlign=middle;resizable=0;points=[];autosize=1;strokeColor=none;fillColor=none;fontSize=27;fontStyle=1" vertex="1" parent="1">
          <mxGeometry x="470" y="2215" width="30" height="50" as="geometry" />
        </mxCell>
        <mxCell id="MoZW9BYMlRde97nalndC-197" value="&lt;font&gt;Owns&lt;/font&gt;" style="text;whiteSpace=wrap;html=1;fontSize=27;fontStyle=1" vertex="1" parent="1">
          <mxGeometry x="1445" y="1590" width="60" height="40" as="geometry" />
        </mxCell>
        <mxCell id="MoZW9BYMlRde97nalndC-198" value="" style="endArrow=none;html=1;endSize=12;startArrow=none;startSize=14;startFill=0;edgeStyle=orthogonalEdgeStyle;align=left;verticalAlign=bottom;rounded=0;strokeWidth=3;endFill=0;exitX=1.053;exitY=0.7;exitDx=0;exitDy=0;exitPerimeter=0;fontSize=27;fontStyle=1" edge="1" parent="1" target="MoZW9BYMlRde97nalndC-77">
          <mxGeometry x="-1" y="3" relative="1" as="geometry">
            <mxPoint x="8.040000000000148" y="-123.5" as="sourcePoint" />
            <mxPoint x="120" y="2360" as="targetPoint" />
            <Array as="points">
              <mxPoint x="8" y="-121" />
              <mxPoint x="-583" y="-121" />
              <mxPoint x="-583" y="2367" />
            </Array>
          </mxGeometry>
        </mxCell>
        <mxCell id="MoZW9BYMlRde97nalndC-199" value="&lt;font&gt;*&lt;/font&gt;" style="text;html=1;align=center;verticalAlign=middle;resizable=0;points=[];autosize=1;strokeColor=none;fillColor=none;fontSize=27;fontStyle=1" vertex="1" parent="1">
          <mxGeometry x="365" y="1015" width="30" height="50" as="geometry" />
        </mxCell>
        <mxCell id="MoZW9BYMlRde97nalndC-200" value="&lt;font&gt;*&lt;/font&gt;" style="text;html=1;align=center;verticalAlign=middle;resizable=0;points=[];autosize=1;strokeColor=none;fillColor=none;fontSize=27;fontStyle=1" vertex="1" parent="1">
          <mxGeometry x="610" y="1725" width="30" height="50" as="geometry" />
        </mxCell>
        <mxCell id="MoZW9BYMlRde97nalndC-201" value="&lt;font&gt;*&lt;/font&gt;" style="text;html=1;align=center;verticalAlign=middle;resizable=0;points=[];autosize=1;strokeColor=none;fillColor=none;fontSize=27;fontStyle=1" vertex="1" parent="1">
          <mxGeometry x="56" y="2325" width="30" height="50" as="geometry" />
        </mxCell>
        <mxCell id="MoZW9BYMlRde97nalndC-203" value="" style="endArrow=none;startArrow=none;endFill=0;startFill=0;html=1;rounded=0;strokeWidth=3;fontSize=27;exitX=0.468;exitY=0.947;exitDx=0;exitDy=0;exitPerimeter=0;entryX=0;entryY=0;entryDx=0;entryDy=0;fontStyle=1" edge="1" parent="1" target="MoZW9BYMlRde97nalndC-73">
          <mxGeometry width="160" relative="1" as="geometry">
            <mxPoint x="-274.0799999999999" y="1311.6679999999997" as="sourcePoint" />
            <mxPoint x="60" y="2100" as="targetPoint" />
            <Array as="points">
              <mxPoint x="-270" y="2141" />
            </Array>
          </mxGeometry>
        </mxCell>
        <mxCell id="MoZW9BYMlRde97nalndC-204" value="&lt;font&gt;*&lt;/font&gt;" style="text;html=1;align=center;verticalAlign=middle;resizable=0;points=[];autosize=1;strokeColor=none;fillColor=none;fontSize=27;fontStyle=1" vertex="1" parent="1">
          <mxGeometry x="50" y="2085" width="30" height="50" as="geometry" />
        </mxCell>
        <mxCell id="MoZW9BYMlRde97nalndC-205" value="&lt;font&gt;*&lt;/font&gt;" style="text;html=1;align=center;verticalAlign=middle;resizable=0;points=[];autosize=1;strokeColor=none;fillColor=none;fontSize=27;fontStyle=1" vertex="1" parent="1">
          <mxGeometry x="-260" y="1043" width="30" height="50" as="geometry" />
        </mxCell>
        <mxCell id="MoZW9BYMlRde97nalndC-206" value="" style="endArrow=open;endFill=1;endSize=12;html=1;rounded=0;strokeWidth=3;fontSize=27;entryX=0;entryY=0.143;entryDx=0;entryDy=0;entryPerimeter=0;fontStyle=1" edge="1" parent="1" target="MoZW9BYMlRde97nalndC-168">
          <mxGeometry width="160" relative="1" as="geometry">
            <mxPoint x="490" y="-240" as="sourcePoint" />
            <mxPoint x="800" y="-240" as="targetPoint" />
          </mxGeometry>
        </mxCell>
        <mxCell id="MoZW9BYMlRde97nalndC-207" value="&lt;span style=&quot;color: rgb(0, 0, 0); font-family: Helvetica; font-style: normal; font-variant-ligatures: normal; font-variant-caps: normal; letter-spacing: normal; orphans: 2; text-align: left; text-indent: 0px; text-transform: none; widows: 2; word-spacing: 0px; -webkit-text-stroke-width: 0px; white-space: nowrap; background-color: rgb(255, 255, 255); text-decoration-thickness: initial; text-decoration-style: initial; text-decoration-color: initial; float: none; display: inline !important;&quot;&gt;&lt;font&gt;1&lt;/font&gt;&lt;/span&gt;" style="text;whiteSpace=wrap;html=1;fontSize=27;fontStyle=1" vertex="1" parent="1">
          <mxGeometry x="500" y="-280" width="20" height="40" as="geometry" />
        </mxCell>
        <mxCell id="MoZW9BYMlRde97nalndC-208" value="&lt;font&gt;&lt;span&gt;*&lt;/span&gt;&lt;/font&gt;" style="text;html=1;align=center;verticalAlign=middle;resizable=0;points=[];autosize=1;strokeColor=none;fillColor=none;fontSize=27;fontStyle=1" vertex="1" parent="1">
          <mxGeometry x="760" y="-285" width="30" height="50" as="geometry" />
        </mxCell>
        <mxCell id="MoZW9BYMlRde97nalndC-209" value="" style="endArrow=open;endFill=1;endSize=12;html=1;rounded=0;strokeWidth=3;fontSize=27;exitX=1;exitY=0.244;exitDx=0;exitDy=0;exitPerimeter=0;fontStyle=1;entryX=0;entryY=0.5;entryDx=0;entryDy=0;" edge="1" parent="1" target="MoZW9BYMlRde97nalndC-173">
          <mxGeometry width="160" relative="1" as="geometry">
            <mxPoint x="490" y="-509.9999999999999" as="sourcePoint" />
            <mxPoint x="810" y="-352.84000000000003" as="targetPoint" />
          </mxGeometry>
        </mxCell>
        <mxCell id="MoZW9BYMlRde97nalndC-210" value="&lt;span style=&quot;color: rgb(0, 0, 0); font-family: Helvetica; font-style: normal; font-variant-ligatures: normal; font-variant-caps: normal; letter-spacing: normal; orphans: 2; text-align: left; text-indent: 0px; text-transform: none; widows: 2; word-spacing: 0px; -webkit-text-stroke-width: 0px; white-space: nowrap; background-color: rgb(255, 255, 255); text-decoration-thickness: initial; text-decoration-style: initial; text-decoration-color: initial; float: none; display: inline !important;&quot;&gt;&lt;font&gt;1&lt;/font&gt;&lt;/span&gt;" style="text;whiteSpace=wrap;html=1;fontSize=27;fontStyle=1" vertex="1" parent="1">
          <mxGeometry x="500" y="-555" width="20" height="40" as="geometry" />
        </mxCell>
        <mxCell id="MoZW9BYMlRde97nalndC-211" value="&lt;font&gt;*&lt;/font&gt;" style="text;html=1;align=center;verticalAlign=middle;resizable=0;points=[];autosize=1;strokeColor=none;fillColor=none;fontSize=27;fontStyle=1" vertex="1" parent="1">
          <mxGeometry x="780" y="-555" width="30" height="50" as="geometry" />
        </mxCell>
        <mxCell id="MoZW9BYMlRde97nalndC-212" value="&lt;font&gt;has&lt;/font&gt;" style="text;whiteSpace=wrap;html=1;fontSize=27;fontStyle=1" vertex="1" parent="1">
          <mxGeometry x="615" y="-276" width="120" height="40" as="geometry" />
        </mxCell>
        <mxCell id="MoZW9BYMlRde97nalndC-213" value="&lt;font&gt;Comments on&lt;/font&gt;" style="text;whiteSpace=wrap;html=1;fontSize=27;fontStyle=1" vertex="1" parent="1">
          <mxGeometry x="-440" y="-170" width="210" height="40" as="geometry" />
        </mxCell>
        <mxCell id="MoZW9BYMlRde97nalndC-214" value="&lt;font&gt;requests&lt;/font&gt;" style="text;whiteSpace=wrap;html=1;fontSize=27;fontStyle=1" vertex="1" parent="1">
          <mxGeometry x="-262.5" y="1620" width="80" height="40" as="geometry" />
        </mxCell>
        <mxCell id="MoZW9BYMlRde97nalndC-215" value="&lt;font&gt;gives&lt;/font&gt;" style="text;whiteSpace=wrap;html=1;fontSize=27;fontStyle=1" vertex="1" parent="1">
          <mxGeometry x="610" y="-560" width="120" height="50" as="geometry" />
        </mxCell>
        <mxCell id="MoZW9BYMlRde97nalndC-216" value="Researcher" style="swimlane;fontStyle=1;align=center;verticalAlign=top;childLayout=stackLayout;horizontal=1;startSize=26;horizontalStack=0;resizeParent=1;resizeParentMax=0;resizeLast=0;collapsible=1;marginBottom=0;whiteSpace=wrap;html=1;fontSize=27;" vertex="1" parent="1">
          <mxGeometry x="-480" y="620" width="440" height="608" as="geometry" />
        </mxCell>
        <mxCell id="MoZW9BYMlRde97nalndC-217" value="-supportingDocuments : String?" style="text;strokeColor=none;fillColor=none;align=left;verticalAlign=top;spacingLeft=4;spacingRight=4;overflow=hidden;rotatable=0;points=[[0,0.5],[1,0.5]];portConstraint=eastwest;whiteSpace=wrap;html=1;fontSize=27;fontStyle=1" vertex="1" parent="MoZW9BYMlRde97nalndC-216">
          <mxGeometry y="26" width="440" height="44" as="geometry" />
        </mxCell>
        <mxCell id="MoZW9BYMlRde97nalndC-218" value="-intendedUse : String" style="text;strokeColor=none;fillColor=none;align=left;verticalAlign=top;spacingLeft=4;spacingRight=4;overflow=hidden;rotatable=0;points=[[0,0.5],[1,0.5]];portConstraint=eastwest;whiteSpace=wrap;html=1;fontSize=27;fontStyle=1" vertex="1" parent="MoZW9BYMlRde97nalndC-216">
          <mxGeometry y="70" width="440" height="50" as="geometry" />
        </mxCell>
        <mxCell id="MoZW9BYMlRde97nalndC-219" value="-historicalContentRequested : String" style="text;strokeColor=none;fillColor=none;align=left;verticalAlign=top;spacingLeft=4;spacingRight=4;overflow=hidden;rotatable=0;points=[[0,0.5],[1,0.5]];portConstraint=eastwest;whiteSpace=wrap;html=1;fontSize=27;fontStyle=1" vertex="1" parent="MoZW9BYMlRde97nalndC-216">
          <mxGeometry y="120" width="440" height="70" as="geometry" />
        </mxCell>
        <mxCell id="MoZW9BYMlRde97nalndC-220" value="-purposeOfResearch : String" style="text;strokeColor=none;fillColor=none;align=left;verticalAlign=top;spacingLeft=4;spacingRight=4;overflow=hidden;rotatable=0;points=[[0,0.5],[1,0.5]];portConstraint=eastwest;whiteSpace=wrap;html=1;fontSize=27;fontStyle=1" vertex="1" parent="MoZW9BYMlRde97nalndC-216">
          <mxGeometry y="190" width="440" height="50" as="geometry" />
        </mxCell>
        <mxCell id="MoZW9BYMlRde97nalndC-221" value="-researchTopic : String" style="text;strokeColor=none;fillColor=none;align=left;verticalAlign=top;spacingLeft=4;spacingRight=4;overflow=hidden;rotatable=0;points=[[0,0.5],[1,0.5]];portConstraint=eastwest;whiteSpace=wrap;html=1;fontSize=27;fontStyle=1" vertex="1" parent="MoZW9BYMlRde97nalndC-216">
          <mxGeometry y="240" width="440" height="50" as="geometry" />
        </mxCell>
        <mxCell id="MoZW9BYMlRde97nalndC-222" value="-proofOfIdentity : String?" style="text;whiteSpace=wrap;html=1;fontSize=27;fontStyle=1" vertex="1" parent="MoZW9BYMlRde97nalndC-216">
          <mxGeometry y="290" width="440" height="50" as="geometry" />
        </mxCell>
        <mxCell id="MoZW9BYMlRde97nalndC-223" value="-researcherType : String?" style="text;strokeColor=none;fillColor=none;align=left;verticalAlign=top;spacingLeft=4;spacingRight=4;overflow=hidden;rotatable=0;points=[[0,0.5],[1,0.5]];portConstraint=eastwest;whiteSpace=wrap;html=1;fontSize=27;fontStyle=1" vertex="1" parent="MoZW9BYMlRde97nalndC-216">
          <mxGeometry y="340" width="440" height="60" as="geometry" />
        </mxCell>
        <mxCell id="MoZW9BYMlRde97nalndC-224" value="-roleExplanation : String?" style="text;whiteSpace=wrap;html=1;fontSize=27;fontStyle=1" vertex="1" parent="MoZW9BYMlRde97nalndC-216">
          <mxGeometry y="400" width="440" height="50" as="geometry" />
        </mxCell>
        <mxCell id="MoZW9BYMlRde97nalndC-225" value="-phoneNumber : String?" style="text;strokeColor=none;fillColor=none;align=left;verticalAlign=top;spacingLeft=4;spacingRight=4;overflow=hidden;rotatable=0;points=[[0,0.5],[1,0.5]];portConstraint=eastwest;whiteSpace=wrap;html=1;fontSize=27;fontStyle=1" vertex="1" parent="MoZW9BYMlRde97nalndC-216">
          <mxGeometry y="450" width="440" height="50" as="geometry" />
        </mxCell>
        <mxCell id="MoZW9BYMlRde97nalndC-226" value="-status :String&amp;nbsp;" style="text;strokeColor=none;fillColor=none;align=left;verticalAlign=top;spacingLeft=4;spacingRight=4;overflow=hidden;rotatable=0;points=[[0,0.5],[1,0.5]];portConstraint=eastwest;whiteSpace=wrap;html=1;fontSize=27;fontStyle=1" vertex="1" parent="MoZW9BYMlRde97nalndC-216">
          <mxGeometry y="500" width="440" height="44" as="geometry" />
        </mxCell>
        <mxCell id="MoZW9BYMlRde97nalndC-227" value="-proofOfAffiliation : String?" style="text;whiteSpace=wrap;html=1;fontSize=27;fontStyle=1" vertex="1" parent="MoZW9BYMlRde97nalndC-216">
          <mxGeometry y="544" width="440" height="56" as="geometry" />
        </mxCell>
        <mxCell id="MoZW9BYMlRde97nalndC-228" value="" style="line;strokeWidth=1;fillColor=none;align=left;verticalAlign=middle;spacingTop=-1;spacingLeft=3;spacingRight=3;rotatable=0;labelPosition=right;points=[];portConstraint=eastwest;strokeColor=inherit;fontSize=27;fontStyle=1" vertex="1" parent="MoZW9BYMlRde97nalndC-216">
          <mxGeometry y="600" width="440" height="8" as="geometry" />
        </mxCell>
        <mxCell id="MoZW9BYMlRde97nalndC-233" value="&lt;font&gt;&lt;span&gt;*&lt;/span&gt;&lt;/font&gt;" style="text;html=1;align=center;verticalAlign=middle;resizable=0;points=[];autosize=1;strokeColor=none;fillColor=none;fontSize=27;fontStyle=1" vertex="1" parent="1">
          <mxGeometry x="-270" y="1405" width="30" height="50" as="geometry" />
        </mxCell>
        <mxCell id="MoZW9BYMlRde97nalndC-234" value="&lt;span style=&quot;&quot;&gt;User&lt;/span&gt;" style="swimlane;fontStyle=1;align=center;verticalAlign=top;childLayout=stackLayout;horizontal=1;startSize=26;horizontalStack=0;resizeParent=1;resizeParentMax=0;resizeLast=0;collapsible=1;marginBottom=0;whiteSpace=wrap;html=1;fontSize=27;" vertex="1" parent="1">
          <mxGeometry x="-40" y="-660" width="530" height="698" as="geometry" />
        </mxCell>
        <mxCell id="MoZW9BYMlRde97nalndC-235" value="- id: Int" style="text;strokeColor=none;fillColor=none;align=left;verticalAlign=top;spacingLeft=4;spacingRight=4;overflow=hidden;rotatable=0;points=[[0,0.5],[1,0.5]];portConstraint=eastwest;whiteSpace=wrap;html=1;fontSize=27;fontStyle=1" vertex="1" parent="MoZW9BYMlRde97nalndC-234">
          <mxGeometry y="26" width="530" height="44" as="geometry" />
        </mxCell>
        <mxCell id="MoZW9BYMlRde97nalndC-236" value="- profilePicture: String?" style="text;strokeColor=none;fillColor=none;align=left;verticalAlign=top;spacingLeft=4;spacingRight=4;overflow=hidden;rotatable=0;points=[[0,0.5],[1,0.5]];portConstraint=eastwest;whiteSpace=wrap;html=1;fontSize=27;fontStyle=1" vertex="1" parent="MoZW9BYMlRde97nalndC-234">
          <mxGeometry y="70" width="530" height="50" as="geometry" />
        </mxCell>
        <mxCell id="MoZW9BYMlRde97nalndC-237" value="- updatedAt: DateTime" style="text;strokeColor=none;fillColor=none;align=left;verticalAlign=top;spacingLeft=4;spacingRight=4;overflow=hidden;rotatable=0;points=[[0,0.5],[1,0.5]];portConstraint=eastwest;whiteSpace=wrap;html=1;fontSize=27;fontStyle=1" vertex="1" parent="MoZW9BYMlRde97nalndC-234">
          <mxGeometry y="120" width="530" height="60" as="geometry" />
        </mxCell>
        <mxCell id="MoZW9BYMlRde97nalndC-238" value="- createdAt: DateTime" style="text;strokeColor=none;fillColor=none;align=left;verticalAlign=top;spacingLeft=4;spacingRight=4;overflow=hidden;rotatable=0;points=[[0,0.5],[1,0.5]];portConstraint=eastwest;whiteSpace=wrap;html=1;fontSize=27;fontStyle=1" vertex="1" parent="MoZW9BYMlRde97nalndC-234">
          <mxGeometry y="180" width="530" height="50" as="geometry" />
        </mxCell>
        <mxCell id="MoZW9BYMlRde97nalndC-239" value="- isActive: Boolean" style="text;strokeColor=none;fillColor=none;align=left;verticalAlign=top;spacingLeft=4;spacingRight=4;overflow=hidden;rotatable=0;points=[[0,0.5],[1,0.5]];portConstraint=eastwest;whiteSpace=wrap;html=1;fontSize=27;fontStyle=1" vertex="1" parent="MoZW9BYMlRde97nalndC-234">
          <mxGeometry y="230" width="530" height="50" as="geometry" />
        </mxCell>
        <mxCell id="MoZW9BYMlRde97nalndC-240" value="- password: String" style="text;strokeColor=none;fillColor=none;align=left;verticalAlign=top;spacingLeft=4;spacingRight=4;overflow=hidden;rotatable=0;points=[[0,0.5],[1,0.5]];portConstraint=eastwest;whiteSpace=wrap;html=1;fontSize=27;fontStyle=1" vertex="1" parent="MoZW9BYMlRde97nalndC-234">
          <mxGeometry y="280" width="530" height="50" as="geometry" />
        </mxCell>
        <mxCell id="MoZW9BYMlRde97nalndC-241" value="- username: String" style="text;strokeColor=none;fillColor=none;align=left;verticalAlign=top;spacingLeft=4;spacingRight=4;overflow=hidden;rotatable=0;points=[[0,0.5],[1,0.5]];portConstraint=eastwest;whiteSpace=wrap;html=1;fontSize=27;fontStyle=1" vertex="1" parent="MoZW9BYMlRde97nalndC-234">
          <mxGeometry y="330" width="530" height="40" as="geometry" />
        </mxCell>
        <mxCell id="MoZW9BYMlRde97nalndC-242" value="- dateOfBirth: DateTime?" style="text;strokeColor=none;fillColor=none;align=left;verticalAlign=top;spacingLeft=4;spacingRight=4;overflow=hidden;rotatable=0;points=[[0,0.5],[1,0.5]];portConstraint=eastwest;whiteSpace=wrap;html=1;fontSize=27;fontStyle=1" vertex="1" parent="MoZW9BYMlRde97nalndC-234">
          <mxGeometry y="370" width="530" height="50" as="geometry" />
        </mxCell>
        <mxCell id="MoZW9BYMlRde97nalndC-243" value="- gender: String?" style="text;strokeColor=none;fillColor=none;align=left;verticalAlign=top;spacingLeft=4;spacingRight=4;overflow=hidden;rotatable=0;points=[[0,0.5],[1,0.5]];portConstraint=eastwest;whiteSpace=wrap;html=1;fontSize=27;fontStyle=1" vertex="1" parent="MoZW9BYMlRde97nalndC-234">
          <mxGeometry y="420" width="530" height="50" as="geometry" />
        </mxCell>
        <mxCell id="MoZW9BYMlRde97nalndC-244" value="- firstName: String?" style="text;strokeColor=none;fillColor=none;align=left;verticalAlign=top;spacingLeft=4;spacingRight=4;overflow=hidden;rotatable=0;points=[[0,0.5],[1,0.5]];portConstraint=eastwest;whiteSpace=wrap;html=1;fontSize=27;fontStyle=1" vertex="1" parent="MoZW9BYMlRde97nalndC-234">
          <mxGeometry y="470" width="530" height="60" as="geometry" />
        </mxCell>
        <mxCell id="MoZW9BYMlRde97nalndC-245" value="- lastName: String?" style="text;strokeColor=none;fillColor=none;align=left;verticalAlign=top;spacingLeft=4;spacingRight=4;overflow=hidden;rotatable=0;points=[[0,0.5],[1,0.5]];portConstraint=eastwest;whiteSpace=wrap;html=1;fontSize=27;fontStyle=1" vertex="1" parent="MoZW9BYMlRde97nalndC-234">
          <mxGeometry y="530" width="530" height="60" as="geometry" />
        </mxCell>
        <mxCell id="MoZW9BYMlRde97nalndC-246" value="- email: String" style="text;strokeColor=none;fillColor=none;align=left;verticalAlign=top;spacingLeft=4;spacingRight=4;overflow=hidden;rotatable=0;points=[[0,0.5],[1,0.5]];portConstraint=eastwest;whiteSpace=wrap;html=1;fontSize=27;fontStyle=1" vertex="1" parent="MoZW9BYMlRde97nalndC-234">
          <mxGeometry y="590" width="530" height="58" as="geometry" />
        </mxCell>
        <mxCell id="MoZW9BYMlRde97nalndC-247" value="+ field: type" style="text;strokeColor=none;fillColor=none;align=left;verticalAlign=top;spacingLeft=4;spacingRight=4;overflow=hidden;rotatable=0;points=[[0,0.5],[1,0.5]];portConstraint=eastwest;whiteSpace=wrap;html=1;fontSize=27;fontStyle=1" vertex="1" parent="MoZW9BYMlRde97nalndC-234">
          <mxGeometry y="648" width="530" height="42" as="geometry" />
        </mxCell>
        <mxCell id="MoZW9BYMlRde97nalndC-248" value="" style="line;strokeWidth=1;fillColor=none;align=left;verticalAlign=middle;spacingTop=-1;spacingLeft=3;spacingRight=3;rotatable=0;labelPosition=right;points=[];portConstraint=eastwest;strokeColor=inherit;fontSize=27;fontStyle=1" vertex="1" parent="MoZW9BYMlRde97nalndC-234">
          <mxGeometry y="690" width="530" height="8" as="geometry" />
        </mxCell>
        <mxCell id="MoZW9BYMlRde97nalndC-254" value="Premium User" style="swimlane;fontStyle=1;align=center;verticalAlign=top;childLayout=stackLayout;horizontal=1;startSize=26;horizontalStack=0;resizeParent=1;resizeParentMax=0;resizeLast=0;collapsible=1;marginBottom=0;whiteSpace=wrap;html=1;fontSize=27;" vertex="1" parent="1">
          <mxGeometry x="220" y="579" width="430" height="332" as="geometry" />
        </mxCell>
        <mxCell id="MoZW9BYMlRde97nalndC-255" value="-startDate : DateTime" style="text;strokeColor=none;fillColor=none;align=left;verticalAlign=top;spacingLeft=4;spacingRight=4;overflow=hidden;rotatable=0;points=[[0,0.5],[1,0.5]];portConstraint=eastwest;whiteSpace=wrap;html=1;fontSize=27;fontStyle=1" vertex="1" parent="MoZW9BYMlRde97nalndC-254">
          <mxGeometry y="26" width="430" height="44" as="geometry" />
        </mxCell>
        <mxCell id="MoZW9BYMlRde97nalndC-256" value="-endDate : DateTime" style="text;strokeColor=none;fillColor=none;align=left;verticalAlign=top;spacingLeft=4;spacingRight=4;overflow=hidden;rotatable=0;points=[[0,0.5],[1,0.5]];portConstraint=eastwest;whiteSpace=wrap;html=1;fontSize=27;fontStyle=1" vertex="1" parent="MoZW9BYMlRde97nalndC-254">
          <mxGeometry y="70" width="430" height="50" as="geometry" />
        </mxCell>
        <mxCell id="MoZW9BYMlRde97nalndC-257" value="-isActive : Boolean" style="text;strokeColor=none;fillColor=none;align=left;verticalAlign=top;spacingLeft=4;spacingRight=4;overflow=hidden;rotatable=0;points=[[0,0.5],[1,0.5]];portConstraint=eastwest;whiteSpace=wrap;html=1;fontSize=27;fontStyle=1" vertex="1" parent="MoZW9BYMlRde97nalndC-254">
          <mxGeometry y="120" width="430" height="50" as="geometry" />
        </mxCell>
        <mxCell id="MoZW9BYMlRde97nalndC-258" value="-transactionId : String" style="text;strokeColor=none;fillColor=none;align=left;verticalAlign=top;spacingLeft=4;spacingRight=4;overflow=hidden;rotatable=0;points=[[0,0.5],[1,0.5]];portConstraint=eastwest;whiteSpace=wrap;html=1;fontSize=27;fontStyle=1" vertex="1" parent="MoZW9BYMlRde97nalndC-254">
          <mxGeometry y="170" width="430" height="50" as="geometry" />
        </mxCell>
        <mxCell id="MoZW9BYMlRde97nalndC-259" value="-cancellationReason : String?" style="text;strokeColor=none;fillColor=none;align=left;verticalAlign=top;spacingLeft=4;spacingRight=4;overflow=hidden;rotatable=0;points=[[0,0.5],[1,0.5]];portConstraint=eastwest;whiteSpace=wrap;html=1;fontSize=27;fontStyle=1" vertex="1" parent="MoZW9BYMlRde97nalndC-254">
          <mxGeometry y="220" width="430" height="40" as="geometry" />
        </mxCell>
        <mxCell id="MoZW9BYMlRde97nalndC-260" value="" style="line;strokeWidth=1;fillColor=none;align=left;verticalAlign=middle;spacingTop=-1;spacingLeft=3;spacingRight=3;rotatable=0;labelPosition=right;points=[];portConstraint=eastwest;strokeColor=inherit;fontSize=27;fontStyle=1" vertex="1" parent="MoZW9BYMlRde97nalndC-254">
          <mxGeometry y="260" width="430" height="30" as="geometry" />
        </mxCell>
        <mxCell id="MoZW9BYMlRde97nalndC-261" value="&lt;font style=&quot;color: rgb(255, 255, 255);&quot;&gt;,&lt;/font&gt;" style="text;strokeColor=none;fillColor=none;align=left;verticalAlign=top;spacingLeft=4;spacingRight=4;overflow=hidden;rotatable=0;points=[[0,0.5],[1,0.5]];portConstraint=eastwest;whiteSpace=wrap;html=1;fontSize=27;fontStyle=1" vertex="1" parent="MoZW9BYMlRde97nalndC-254">
          <mxGeometry y="290" width="430" height="42" as="geometry" />
        </mxCell>
        <mxCell id="MoZW9BYMlRde97nalndC-265" value="" style="endArrow=none;html=1;rounded=0;strokeWidth=3;fontSize=27;fontStyle=1" edge="1" parent="1" target="MoZW9BYMlRde97nalndC-193">
          <mxGeometry relative="1" as="geometry">
            <mxPoint x="270" y="2570" as="sourcePoint" />
            <mxPoint x="430" y="2570" as="targetPoint" />
          </mxGeometry>
        </mxCell>
        <mxCell id="MoZW9BYMlRde97nalndC-266" value="&lt;font&gt;*&lt;/font&gt;" style="text;html=1;align=center;verticalAlign=middle;resizable=0;points=[];autosize=1;strokeColor=none;fillColor=none;fontSize=27;fontStyle=1" vertex="1" parent="1">
          <mxGeometry x="670" y="1315" width="30" height="50" as="geometry" />
        </mxCell>
        <mxCell id="MoZW9BYMlRde97nalndC-267" value="" style="endArrow=none;html=1;rounded=0;entryX=0;entryY=0.5;entryDx=0;entryDy=0;strokeWidth=3;fontSize=27;fontStyle=1;exitX=1;exitY=0.5;exitDx=0;exitDy=0;" edge="1" parent="1" target="MoZW9BYMlRde97nalndC-41" source="MoZW9BYMlRde97nalndC-37">
          <mxGeometry relative="1" as="geometry">
            <mxPoint x="1320" y="1160" as="sourcePoint" />
            <mxPoint x="1480" y="1150" as="targetPoint" />
          </mxGeometry>
        </mxCell>
        <mxCell id="MoZW9BYMlRde97nalndC-268" value="&lt;span style=&quot;color: rgb(0, 0, 0); font-family: Helvetica; font-style: normal; font-variant-ligatures: normal; font-variant-caps: normal; letter-spacing: normal; orphans: 2; text-align: left; text-indent: 0px; text-transform: none; widows: 2; word-spacing: 0px; -webkit-text-stroke-width: 0px; white-space: nowrap; background-color: rgb(255, 255, 255); text-decoration-thickness: initial; text-decoration-style: initial; text-decoration-color: initial; float: none; display: inline !important;&quot;&gt;1&lt;/span&gt;" style="text;whiteSpace=wrap;html=1;fontSize=27;fontStyle=1" vertex="1" parent="1">
          <mxGeometry x="1390" y="1115" width="20" height="40" as="geometry" />
        </mxCell>
        <mxCell id="MoZW9BYMlRde97nalndC-269" value="" style="endArrow=none;html=1;rounded=0;strokeWidth=3;fontSize=27;exitX=0.565;exitY=1.006;exitDx=0;exitDy=0;exitPerimeter=0;fontStyle=1" edge="1" parent="1">
          <mxGeometry relative="1" as="geometry">
            <mxPoint x="440.34999999999945" y="969.4799999999996" as="sourcePoint" />
            <mxPoint x="670" y="1766" as="targetPoint" />
            <Array as="points">
              <mxPoint x="440" y="1766.36" />
            </Array>
          </mxGeometry>
        </mxCell>
        <mxCell id="MoZW9BYMlRde97nalndC-270" value="&lt;font&gt;&lt;span&gt;*&lt;/span&gt;&lt;/font&gt;" style="text;html=1;align=center;verticalAlign=middle;resizable=0;points=[];autosize=1;strokeColor=none;fillColor=none;fontSize=27;fontStyle=1" vertex="1" parent="1">
          <mxGeometry x="-80" y="-175" width="30" height="50" as="geometry" />
        </mxCell>
        <mxCell id="MoZW9BYMlRde97nalndC-271" value="" style="html=1;verticalAlign=bottom;endArrow=block;curved=0;rounded=0;strokeColor=#FFFFFF;fontSize=27;fontStyle=1" edge="1" parent="1">
          <mxGeometry width="80" relative="1" as="geometry">
            <mxPoint x="-2450" y="1420" as="sourcePoint" />
            <mxPoint x="-730" y="1470" as="targetPoint" />
          </mxGeometry>
        </mxCell>
        <mxCell id="MoZW9BYMlRde97nalndC-272" value="&lt;font&gt;subscribes&lt;/font&gt;" style="text;html=1;align=center;verticalAlign=middle;resizable=0;points=[];autosize=1;strokeColor=none;fillColor=none;fontSize=27;fontStyle=1" vertex="1" parent="1">
          <mxGeometry x="450" y="1545" width="150" height="50" as="geometry" />
        </mxCell>
        <mxCell id="MoZW9BYMlRde97nalndC-273" value="" style="html=1;verticalAlign=bottom;endArrow=block;curved=0;rounded=0;strokeColor=#FFFFFF;fontSize=27;fontStyle=1" edge="1" parent="1">
          <mxGeometry width="80" relative="1" as="geometry">
            <mxPoint x="2240" y="1395" as="sourcePoint" />
            <mxPoint x="3960" y="1445" as="targetPoint" />
          </mxGeometry>
        </mxCell>
        <mxCell id="MoZW9BYMlRde97nalndC-274" style="edgeStyle=orthogonalEdgeStyle;rounded=0;orthogonalLoop=1;jettySize=auto;html=1;entryX=0.5;entryY=0;entryDx=0;entryDy=0;fontSize=27;fontStyle=1" edge="1" parent="1">
          <mxGeometry relative="1" as="geometry">
            <mxPoint x="660" y="-1180" as="sourcePoint" />
            <mxPoint x="660" y="-1180" as="targetPoint" />
          </mxGeometry>
        </mxCell>
        <mxCell id="MoZW9BYMlRde97nalndC-275" value="" style="endArrow=open;endFill=1;endSize=12;html=1;rounded=0;strokeColor=#FFFFFF;fontSize=27;fontStyle=1" edge="1" parent="1">
          <mxGeometry width="160" relative="1" as="geometry">
            <mxPoint x="160" y="-1180" as="sourcePoint" />
            <mxPoint x="320" y="-1180" as="targetPoint" />
          </mxGeometry>
        </mxCell>
        <mxCell id="MoZW9BYMlRde97nalndC-276" value="" style="endArrow=open;endFill=1;endSize=12;html=1;rounded=0;strokeColor=#FFFFFF;fontSize=27;fontStyle=1" edge="1" parent="1">
          <mxGeometry width="160" relative="1" as="geometry">
            <mxPoint x="540" y="4110" as="sourcePoint" />
            <mxPoint x="700" y="4110" as="targetPoint" />
          </mxGeometry>
        </mxCell>
        <mxCell id="MoZW9BYMlRde97nalndC-277" value="&lt;p data-pm-slice=&quot;0 0 []&quot;&gt;&lt;br&gt;&lt;/p&gt;" style="text;whiteSpace=wrap;html=1;fontSize=27;fontStyle=1" vertex="1" parent="1">
          <mxGeometry x="-830" y="3565" width="405" height="50" as="geometry" />
        </mxCell>
        <mxCell id="MoZW9BYMlRde97nalndC-284" value="Platform Administration" style="swimlane;whiteSpace=wrap;html=1;fillColor=#d5e8d4;strokeColor=#82b366;" vertex="1" parent="1">
          <mxGeometry x="230" y="-3360" width="200" height="200" as="geometry" />
        </mxCell>
        <mxCell id="MoZW9BYMlRde97nalndC-290" value="&lt;font style=&quot;font-size: 14px;&quot;&gt;&lt;font face=&quot;Times New Roman&quot;&gt;review institution&lt;/font&gt;&lt;br&gt;&lt;/font&gt;&lt;div&gt;&lt;font size=&quot;3&quot; face=&quot;Times New Roman&quot;&gt;Create subscription&amp;nbsp;&lt;/font&gt;&lt;/div&gt;&lt;div&gt;&lt;br&gt;&lt;/div&gt;" style="text;html=1;align=center;verticalAlign=middle;resizable=0;points=[];autosize=1;strokeColor=none;fillColor=none;" vertex="1" parent="MoZW9BYMlRde97nalndC-284">
          <mxGeometry x="35" y="65" width="150" height="60" as="geometry" />
        </mxCell>
        <mxCell id="MoZW9BYMlRde97nalndC-286" value="User Management&amp;nbsp;" style="swimlane;whiteSpace=wrap;html=1;fillColor=#d5e8d4;strokeColor=#82b366;" vertex="1" parent="1">
          <mxGeometry x="-410" y="-3360" width="200" height="200" as="geometry" />
        </mxCell>
        <mxCell id="MoZW9BYMlRde97nalndC-287" value="&lt;font style=&quot;font-size: 14px;&quot; face=&quot;Times New Roman&quot;&gt;login&lt;/font&gt;&lt;div&gt;&lt;font size=&quot;3&quot; face=&quot;Times New Roman&quot;&gt;logout&lt;/font&gt;&lt;/div&gt;&lt;div&gt;&lt;font size=&quot;3&quot; face=&quot;Times New Roman&quot;&gt;forgot password&lt;/font&gt;&lt;/div&gt;&lt;div&gt;&lt;font size=&quot;3&quot; face=&quot;Times New Roman&quot;&gt;crate account&lt;/font&gt;&lt;/div&gt;&lt;div&gt;&lt;font size=&quot;3&quot; face=&quot;Times New Roman&quot;&gt;upgrade account&lt;/font&gt;&lt;/div&gt;&lt;div&gt;&lt;font size=&quot;3&quot; face=&quot;Times New Roman&quot;&gt;update profile&lt;/font&gt;&lt;/div&gt;&lt;div&gt;&lt;font size=&quot;3&quot; face=&quot;Times New Roman&quot;&gt;deactivate account&amp;nbsp;&lt;/font&gt;&lt;/div&gt;" style="text;html=1;align=center;verticalAlign=middle;resizable=0;points=[];autosize=1;strokeColor=none;fillColor=none;" vertex="1" parent="MoZW9BYMlRde97nalndC-286">
          <mxGeometry x="20" y="25" width="150" height="150" as="geometry" />
        </mxCell>
        <mxCell id="MoZW9BYMlRde97nalndC-288" value="Institution Management&amp;nbsp;" style="swimlane;whiteSpace=wrap;html=1;fillColor=#d5e8d4;strokeColor=#82b366;" vertex="1" parent="1">
          <mxGeometry x="-110" y="-3360" width="200" height="200" as="geometry" />
        </mxCell>
        <mxCell id="MoZW9BYMlRde97nalndC-289" value="&lt;font face=&quot;Times New Roman&quot; style=&quot;font-size: 14px;&quot;&gt;Request to join&lt;/font&gt;&lt;div&gt;&lt;font face=&quot;Times New Roman&quot; size=&quot;3&quot;&gt;Create staff Account&lt;/font&gt;&lt;/div&gt;&lt;div&gt;&lt;font face=&quot;Times New Roman&quot; size=&quot;3&quot;&gt;Manage staff Account&lt;/font&gt;&lt;/div&gt;&lt;div&gt;&lt;font face=&quot;Times New Roman&quot; size=&quot;3&quot; style=&quot;&quot;&gt;update institution Profile&lt;/font&gt;&lt;/div&gt;" style="text;html=1;align=center;verticalAlign=middle;resizable=0;points=[];autosize=1;strokeColor=none;fillColor=none;" vertex="1" parent="MoZW9BYMlRde97nalndC-288">
          <mxGeometry x="10" y="55" width="180" height="90" as="geometry" />
        </mxCell>
        <mxCell id="MoZW9BYMlRde97nalndC-291" value="Feedback and Commenting&amp;nbsp;" style="swimlane;whiteSpace=wrap;html=1;fillColor=#d5e8d4;strokeColor=#82b366;" vertex="1" parent="1">
          <mxGeometry x="-410" y="-3050" width="200" height="200" as="geometry" />
        </mxCell>
        <mxCell id="MoZW9BYMlRde97nalndC-292" value="&lt;font style=&quot;font-size: 11px;&quot; face=&quot;Times New Roman&quot;&gt;Provide feedback&lt;br&gt;&lt;/font&gt;&lt;div&gt;&lt;font size=&quot;3&quot; face=&quot;Times New Roman&quot;&gt;Response for feedback&lt;/font&gt;&lt;/div&gt;&lt;div&gt;&lt;font size=&quot;3&quot; face=&quot;Times New Roman&quot;&gt;Comment&lt;/font&gt;&lt;/div&gt;&lt;div&gt;&lt;font size=&quot;3&quot; face=&quot;Times New Roman&quot;&gt;Report on&amp;nbsp;&amp;nbsp;&lt;span style=&quot;background-color: transparent; color: light-dark(rgb(0, 0, 0), rgb(255, 255, 255));&quot;&gt;Comment&lt;/span&gt;&lt;/font&gt;&lt;/div&gt;&lt;div&gt;&lt;font size=&quot;3&quot; face=&quot;Times New Roman&quot;&gt;deactivate&amp;nbsp;Comment&amp;nbsp;&lt;/font&gt;&lt;/div&gt;" style="text;html=1;align=center;verticalAlign=middle;resizable=0;points=[];autosize=1;strokeColor=none;fillColor=none;" vertex="1" parent="MoZW9BYMlRde97nalndC-291">
          <mxGeometry x="10" y="45" width="170" height="110" as="geometry" />
        </mxCell>
        <mxCell id="MoZW9BYMlRde97nalndC-293" value="Content Managment" style="swimlane;whiteSpace=wrap;html=1;fillColor=#d5e8d4;strokeColor=#82b366;" vertex="1" parent="1">
          <mxGeometry x="-101" y="-3050" width="200" height="200" as="geometry" />
        </mxCell>
        <mxCell id="MoZW9BYMlRde97nalndC-294" value="&lt;font style=&quot;font-size: 14px;&quot; face=&quot;Times New Roman&quot;&gt;categorized&lt;/font&gt;&lt;div&gt;&lt;font size=&quot;3&quot; face=&quot;Times New Roman&quot;&gt;upload&lt;/font&gt;&lt;/div&gt;&lt;div&gt;&lt;font size=&quot;3&quot; face=&quot;Times New Roman&quot;&gt;edit metadata&lt;/font&gt;&lt;/div&gt;&lt;div&gt;&lt;font size=&quot;3&quot; face=&quot;Times New Roman&quot;&gt;deactivate&lt;/font&gt;&lt;/div&gt;" style="text;html=1;align=center;verticalAlign=middle;resizable=0;points=[];autosize=1;strokeColor=none;fillColor=none;" vertex="1" parent="MoZW9BYMlRde97nalndC-293">
          <mxGeometry x="40" y="55" width="110" height="90" as="geometry" />
        </mxCell>
        <mxCell id="MoZW9BYMlRde97nalndC-295" value="user access and permission" style="swimlane;whiteSpace=wrap;html=1;fillColor=#d5e8d4;strokeColor=#82b366;" vertex="1" parent="1">
          <mxGeometry x="230" y="-3040" width="205" height="200" as="geometry" />
        </mxCell>
        <mxCell id="MoZW9BYMlRde97nalndC-297" value="&lt;font style=&quot;font-size: 24px;&quot;&gt;EHTPS&lt;/font&gt;" style="text;html=1;align=center;verticalAlign=middle;resizable=0;points=[];autosize=1;strokeColor=#82b366;fillColor=#d5e8d4;" vertex="1" parent="1">
          <mxGeometry x="-58" y="-3553" width="100" height="40" as="geometry" />
        </mxCell>
        <mxCell id="MoZW9BYMlRde97nalndC-310" style="edgeStyle=orthogonalEdgeStyle;rounded=0;orthogonalLoop=1;jettySize=auto;html=1;strokeWidth=3;" edge="1" parent="1" target="MoZW9BYMlRde97nalndC-284">
          <mxGeometry relative="1" as="geometry">
            <mxPoint x="320" y="-3480" as="targetPoint" />
            <mxPoint x="-300" y="-3370" as="sourcePoint" />
            <Array as="points">
              <mxPoint x="-300" y="-3410" />
              <mxPoint x="330" y="-3410" />
            </Array>
          </mxGeometry>
        </mxCell>
        <mxCell id="MoZW9BYMlRde97nalndC-301" value="" style="endArrow=none;html=1;rounded=0;entryX=0.5;entryY=1;entryDx=0;entryDy=0;strokeWidth=3;" edge="1" parent="1" source="MoZW9BYMlRde97nalndC-291" target="MoZW9BYMlRde97nalndC-286">
          <mxGeometry width="50" height="50" relative="1" as="geometry">
            <mxPoint x="-340" y="-3090" as="sourcePoint" />
            <mxPoint x="-290" y="-3140" as="targetPoint" />
          </mxGeometry>
        </mxCell>
        <mxCell id="MoZW9BYMlRde97nalndC-302" value="" style="endArrow=none;html=1;rounded=0;entryX=0.5;entryY=1;entryDx=0;entryDy=0;strokeWidth=3;" edge="1" parent="1">
          <mxGeometry width="50" height="50" relative="1" as="geometry">
            <mxPoint y="-3050" as="sourcePoint" />
            <mxPoint y="-3160" as="targetPoint" />
          </mxGeometry>
        </mxCell>
        <mxCell id="MoZW9BYMlRde97nalndC-303" value="" style="endArrow=none;html=1;rounded=0;strokeWidth=3;" edge="1" parent="1" target="MoZW9BYMlRde97nalndC-296">
          <mxGeometry width="50" height="50" relative="1" as="geometry">
            <mxPoint x="100" y="-2940" as="sourcePoint" />
            <mxPoint x="130" y="-2990" as="targetPoint" />
          </mxGeometry>
        </mxCell>
        <mxCell id="MoZW9BYMlRde97nalndC-296" value="&lt;font style=&quot;font-size: 14px;&quot; face=&quot;Times New Roman&quot;&gt;Search&amp;nbsp;&lt;br&gt;&lt;/font&gt;&lt;div&gt;&lt;font size=&quot;3&quot; face=&quot;Times New Roman&quot;&gt;view free content&amp;nbsp;&lt;/font&gt;&lt;/div&gt;&lt;div&gt;&lt;font size=&quot;3&quot; face=&quot;Times New Roman&quot;&gt;view premium content&amp;nbsp;&lt;/font&gt;&lt;/div&gt;&lt;div&gt;&lt;font size=&quot;3&quot; face=&quot;Times New Roman&quot;&gt;view Researcher Content&lt;/font&gt;&lt;/div&gt;&lt;div&gt;&lt;font size=&quot;3&quot; face=&quot;Times New Roman&quot;&gt;apply for researcher content&amp;nbsp;&lt;/font&gt;&lt;/div&gt;&lt;div&gt;&lt;font size=&quot;3&quot; style=&quot;&quot; face=&quot;Times New Roman&quot;&gt;Review Requestersapplication&lt;/font&gt;&lt;/div&gt;" style="text;html=1;align=center;verticalAlign=middle;resizable=0;points=[];autosize=1;strokeColor=none;fillColor=none;" vertex="1" parent="1">
          <mxGeometry x="230" y="-3005" width="220" height="130" as="geometry" />
        </mxCell>
        <mxCell id="MoZW9BYMlRde97nalndC-313" value="" style="endArrow=none;html=1;rounded=0;entryX=0.56;entryY=1.038;entryDx=0;entryDy=0;entryPerimeter=0;exitX=0.685;exitY=0.008;exitDx=0;exitDy=0;exitPerimeter=0;strokeWidth=3;" edge="1" parent="1">
          <mxGeometry width="50" height="50" relative="1" as="geometry">
            <mxPoint x="-6" y="-3358.4" as="sourcePoint" />
            <mxPoint x="-7" y="-3511.48" as="targetPoint" />
          </mxGeometry>
        </mxCell>
      </root>
    </mxGraphModel>
  </diagram>
</mxfile>
